<svg xmlns="http://www.w3.org/2000/svg" width="45" height="41" fill="none"><path fill="#1A75BB" d="M3.984.156C4.141 0 4.375 0 4.61.078L15.703 5h6.172c1.719 0 3.281.86 4.375 2.11V3.75c0-.312.234-.625.625-.625.313 0 .625.313.625.625v9.375h3.75V6.25c0-.312.234-.625.625-.625.313 0 .625.313.625.625v6.875h3.75v-1.25c0-.234.078-.469.313-.547l7.5-3.125c.234-.078.468-.078.624.078.157.078.313.313.313.469v10c0 .234-.156.469-.312.547-.157.156-.391.156-.626.078l-7.5-3.125c-.234-.078-.312-.312-.312-.625v-1.25H32.5v6.875c0 .39-.312.625-.625.625-.39 0-.625-.234-.625-.625v-6.875H27.5v9.375c0 .39-.312.625-.625.625-.39 0-.625-.234-.625-.625v-3.281c-1.094 1.25-2.656 2.031-4.375 2.031h-.39l-8.047 16.172c-.626 1.25-2.11 1.719-3.36 1.094l-6.25-3.125c-1.25-.625-1.719-2.11-1.094-3.36L8.125 22.5A8.727 8.727 0 0 1 0 13.75c0-2.969 1.484-5.547 3.75-7.11V.626c0-.156.078-.39.234-.469M37.5 13.75v1.484l6.25 2.579V9.688l-6.25 2.656zm-21.875-7.5H8.75c-4.14 0-7.5 3.36-7.5 7.5s3.36 7.5 7.5 7.5h13.125c2.344 0 4.375-1.953 4.375-4.375v-6.25c0-2.344-2.031-4.375-4.375-4.375zM5 1.64v4.22C6.094 5.311 7.344 5 8.75 5h3.906zM9.531 22.5 3.828 33.828c-.312.625 0 1.406.547 1.719l6.25 3.125c.625.312 1.406 0 1.719-.547L20.078 22.5zm-.781-10c.625 0 1.25.625 1.25 1.25 0 .703-.625 1.25-1.25 1.25-.703 0-1.25-.547-1.25-1.25 0-.625.547-1.25 1.25-1.25m3.75 1.25c0-.625.547-1.25 1.25-1.25.625 0 1.25.625 1.25 1.25 0 .703-.625 1.25-1.25 1.25-.703 0-1.25-.547-1.25-1.25m6.25-1.25c.625 0 1.25.625 1.25 1.25 0 .703-.625 1.25-1.25 1.25-.703 0-1.25-.547-1.25-1.25 0-.625.547-1.25 1.25-1.25"/></svg>