<svg xmlns="http://www.w3.org/2000/svg" width="50" height="42" fill="none"><path fill="#1A75BB" d="M16.25 11c0 3.203 1.64 6.016 4.375 7.578 2.656 1.64 6.016 1.64 8.75 0 2.656-1.562 4.375-4.375 4.375-7.578 0-3.125-1.719-5.937-4.375-7.5-2.734-1.64-6.094-1.64-8.75 0-2.734 1.563-4.375 4.375-4.375 7.5M35 11c0 3.594-1.953 6.875-5 8.672-3.125 1.797-6.953 1.797-10 0-3.125-1.797-5-5.078-5-8.672 0-3.516 1.875-6.797 5-8.594 3.047-1.797 6.875-1.797 10 0 3.047 1.797 5 5.078 5 8.594M7.5 9.75v11.484c0 1.172.313 2.188 1.016 3.047a3.38 3.38 0 0 1 .859-1.953c1.328-1.484 3.672-1.64 5.078-.156l7.266 7.265c1.25 1.25 2.031 2.97 2.031 4.766v6.172c0 .39-.312.625-.625.625-.39 0-.625-.234-.625-.625v-6.172c0-1.484-.625-2.89-1.64-3.906l-7.266-7.266c-.938-.937-2.422-.86-3.281.157-.782.859-.704 2.187.078 3.046l4.375 4.375.625.625a.613.613 0 0 1 0 .86.613.613 0 0 1-.86 0l-.625-.625-4.375-4.375-1.562-1.485a6.42 6.42 0 0 1-1.719-4.375V9.75c0-1.328-1.172-2.5-2.5-2.5-1.406 0-2.5 1.172-2.5 2.5v18.203c0 1.797.703 3.516 1.953 4.844l7.188 7.187a.613.613 0 0 1 0 .86.613.613 0 0 1-.86 0l-7.187-7.188C.859 32.172 0 30.063 0 27.953V9.75A3.75 3.75 0 0 1 3.75 6C5.781 6 7.5 7.719 7.5 9.75M46.25 6C48.281 6 50 7.719 50 9.75v18.203c0 2.11-.86 4.219-2.422 5.703l-7.187 7.188a.613.613 0 0 1-.86 0 .613.613 0 0 1 0-.86l7.188-7.187c1.25-1.328 2.031-3.047 2.031-4.844V9.75c0-1.328-1.172-2.5-2.5-2.5-1.406 0-2.5 1.172-2.5 2.5v11.484c0 1.641-.703 3.203-1.797 4.375l-1.562 1.485-4.375 4.375-.625.625a.613.613 0 0 1-.86 0 .613.613 0 0 1 0-.86l.625-.625 4.375-4.375c.86-.859.86-2.187.078-3.047-.78-1.015-2.343-1.093-3.28-.156l-7.267 7.266c-1.015 1.015-1.562 2.422-1.562 3.906v6.172c0 .39-.312.625-.625.625-.39 0-.625-.234-.625-.625v-6.172c0-1.797.703-3.516 1.953-4.766l7.266-7.265c1.406-1.485 3.75-1.328 5.078.156.547.625.781 1.25.86 1.953a4.7 4.7 0 0 0 1.093-3.047V9.75A3.75 3.75 0 0 1 46.25 6"/></svg>