<svg xmlns="http://www.w3.org/2000/svg" width="40" height="36" fill="none"><path fill="#1A75BB" d="M1.25 1.125v28.75a4.37 4.37 0 0 0 4.375 4.375h33.75c.313 0 .625.313.625.625 0 .39-.312.625-.625.625H5.625A5.6 5.6 0 0 1 0 29.875V1.125C0 .813.234.5.625.5c.313 0 .625.313.625.625M16.875 10.5c0-1.016-.86-1.875-1.875-1.875-1.094 0-1.875.86-1.875 1.875 0 1.094.781 1.875 1.875 1.875 1.016 0 1.875-.781 1.875-1.875M15 7.375c1.094 0 2.11.625 2.656 1.563.547 1.015.547 2.187 0 3.124-.547 1.016-1.562 1.563-2.656 1.563-1.172 0-2.187-.547-2.734-1.562-.547-.938-.547-2.11 0-3.126A3.15 3.15 0 0 1 15 7.376m7.5 12.5c1.016 0 1.875-.781 1.875-1.875 0-1.016-.86-1.875-1.875-1.875-1.094 0-1.875.86-1.875 1.875 0 1.094.781 1.875 1.875 1.875M19.375 18c0-1.094.547-2.11 1.563-2.656.937-.547 2.109-.547 3.125 0 .937.547 1.562 1.562 1.562 2.656a3.15 3.15 0 0 1-1.562 2.734c-1.016.547-2.188.547-3.125 0-1.016-.547-1.563-1.562-1.563-2.734m12.5 5c0-1.016-.86-1.875-1.875-1.875-1.094 0-1.875.86-1.875 1.875 0 1.094.781 1.875 1.875 1.875 1.016 0 1.875-.781 1.875-1.875M30 19.875c1.094 0 2.11.625 2.656 1.563.547 1.015.547 2.187 0 3.125-.547 1.015-1.562 1.562-2.656 1.562-1.172 0-2.187-.547-2.734-1.562-.547-.938-.547-2.11 0-3.125A3.15 3.15 0 0 1 30 19.875m2.5-10c1.016 0 1.875-.781 1.875-1.875 0-1.016-.86-1.875-1.875-1.875-1.094 0-1.875.86-1.875 1.875 0 1.094.781 1.875 1.875 1.875M29.375 8c0-1.094.547-2.11 1.563-2.656.937-.547 2.109-.547 3.125 0C35 5.89 35.625 6.906 35.625 8a3.15 3.15 0 0 1-1.562 2.734c-1.016.547-2.188.547-3.126 0-1.015-.546-1.562-1.562-1.562-2.734m-15 15c0-1.016-.86-1.875-1.875-1.875-1.094 0-1.875.86-1.875 1.875 0 1.094.781 1.875 1.875 1.875 1.016 0 1.875-.781 1.875-1.875M12.5 19.875c1.094 0 2.11.625 2.656 1.563.547 1.015.547 2.187 0 3.125-.547 1.015-1.562 1.562-2.656 1.562-1.172 0-2.187-.547-2.734-1.562-.547-.938-.547-2.11 0-3.125a3.15 3.15 0 0 1 2.734-1.563"/></svg>