<svg xmlns="http://www.w3.org/2000/svg" width="32" height="32" fill="none"><path fill="#1A75BB" d="M4 4c-1.125 0-2 .938-2 2v20c0 1.125.875 2 2 2h24c1.063 0 2-.875 2-2V6c0-1.062-.937-2-2-2zM0 6c0-2.187 1.75-4 4-4h24c2.188 0 4 1.813 4 4v20c0 2.25-1.812 4-4 4H4c-2.25 0-4-1.75-4-4zm11.25 5.313c.375-.376 1.063-.376 1.438 0L16 14.625l3.25-3.312c.375-.376 1.063-.376 1.438 0 .375.374.375 1.062 0 1.437L17.375 16l3.313 3.313c.375.375.375 1.062 0 1.437s-1.063.375-1.438 0L16 17.438l-3.312 3.312c-.376.375-1.063.375-1.438 0s-.375-1.062 0-1.437L14.563 16l-3.313-3.25c-.375-.375-.375-1.062 0-1.437"/></svg>