<svg xmlns="http://www.w3.org/2000/svg" width="48" height="48" fill="none"><rect width="48" height="48" fill="#F4F6FC" rx="4"/><path fill="#1A75BB" d="m19.313 14.766-3.75 4.5A.78.78 0 0 1 15 19.5c-.187.047-.422-.047-.562-.187l-2.25-2.25c-.282-.282-.282-.797 0-1.079.28-.28.796-.28 1.078 0l1.64 1.688 3.235-3.89c.28-.329.75-.329 1.078-.095.328.282.375.75.093 1.079m0 7.5-3.75 4.5A.78.78 0 0 1 15 27c-.187.047-.422-.047-.562-.187l-2.25-2.25c-.282-.282-.282-.797 0-1.079.28-.28.796-.28 1.078 0l1.64 1.688 3.235-3.89c.28-.329.75-.329 1.078-.095.328.282.375.75.093 1.079M21 16.5c0-.375.328-.75.75-.75h13.5c.375 0 .75.375.75.75 0 .422-.375.75-.75.75h-13.5a.74.74 0 0 1-.75-.75m0 7.5c0-.375.328-.75.75-.75h13.5c.375 0 .75.375.75.75 0 .422-.375.75-.75.75h-13.5A.74.74 0 0 1 21 24m-1.5 7.5c0-.375.328-.75.75-.75h15c.375 0 .75.375.75.75 0 .422-.375.75-.75.75h-15a.74.74 0 0 1-.75-.75m-3 0c0 .844-.703 1.5-1.5 1.5a1.48 1.48 0 0 1-1.5-1.5c0-.797.656-1.5 1.5-1.5.797 0 1.5.703 1.5 1.5"/></svg>