<svg xmlns="http://www.w3.org/2000/svg" width="50" height="41" fill="none"><path fill="#1A75BB" d="M25.625.625v1.953c.938.078 1.875.313 2.813.547.312.078.546.39.39.781-.078.313-.39.547-.781.39-1.016-.234-2.11-.468-3.125-.546-.86 0-1.797.234-2.578.703-.703.39-1.094 1.094-1.094 1.953 0 .782.39 1.328 1.094 1.797.703.469 1.718.781 2.812 1.094 1.094.39 2.266.703 3.125 1.328.938.625 1.64 1.484 1.719 2.89 0 1.485-.703 2.5-1.719 3.204-.781.468-1.718.781-2.656.781v1.953c0 .313-.312.625-.625.625a.616.616 0 0 1-.625-.625V17.5c-1.25-.156-2.344-.547-3.36-.937a5 5 0 0 1-.624-.235c-.313-.078-.47-.469-.391-.781.156-.313.469-.469.781-.39.235.077.469.155.625.234 1.25.468 2.344.859 3.594.937.938 0 1.875-.234 2.578-.703.703-.39 1.172-1.094 1.172-2.11-.078-.859-.469-1.406-1.172-1.874-.703-.47-1.719-.782-2.812-1.094l-.078-.078c-1.094-.313-2.188-.703-3.047-1.25C20.703 8.672 20 7.813 20 6.484c0-1.484.703-2.5 1.719-3.125.781-.468 1.718-.703 2.656-.78V.624c0-.312.234-.625.625-.625.313 0 .625.313.625.625M7.5 8.75v11.484c0 1.172.313 2.188 1.016 3.047a3.38 3.38 0 0 1 .859-1.953c1.328-1.484 3.672-1.64 5.078-.156l7.266 7.265c1.25 1.25 2.031 2.97 2.031 4.766v6.172c0 .39-.312.625-.625.625-.39 0-.625-.234-.625-.625v-6.172c0-1.484-.625-2.89-1.64-3.906l-7.266-7.266c-.938-.937-2.422-.86-3.281.157-.782.859-.704 2.187.078 3.046l4.375 4.375.625.625a.613.613 0 0 1 0 .86.613.613 0 0 1-.86 0l-.625-.625-4.375-4.375-1.562-1.485a6.42 6.42 0 0 1-1.719-4.375V8.75c0-1.328-1.172-2.5-2.5-2.5-1.406 0-2.5 1.172-2.5 2.5v18.203c0 1.797.703 3.516 1.953 4.844l7.188 7.187a.613.613 0 0 1 0 .86.613.613 0 0 1-.86 0l-7.187-7.188C.859 31.172 0 29.063 0 26.953V8.75A3.75 3.75 0 0 1 3.75 5C5.781 5 7.5 6.719 7.5 8.75M46.25 5C48.281 5 50 6.719 50 8.75v18.203c0 2.11-.86 4.219-2.422 5.703l-7.187 7.188a.613.613 0 0 1-.86 0 .613.613 0 0 1 0-.86l7.188-7.187c1.25-1.328 2.031-3.047 2.031-4.844V8.75c0-1.328-1.172-2.5-2.5-2.5-1.406 0-2.5 1.172-2.5 2.5v11.484c0 1.641-.703 3.203-1.797 4.375l-1.562 1.485-4.375 4.375-.625.625a.613.613 0 0 1-.86 0 .613.613 0 0 1 0-.86l.625-.625 4.375-4.375c.86-.859.86-2.187.078-3.047-.78-1.015-2.343-1.093-3.28-.156l-7.267 7.266c-1.015 1.015-1.562 2.422-1.562 3.906v6.172c0 .39-.312.625-.625.625-.39 0-.625-.234-.625-.625v-6.172c0-1.797.703-3.516 1.953-4.766l7.266-7.265c1.406-1.485 3.75-1.328 5.078.156.547.625.781 1.25.86 1.953a4.7 4.7 0 0 0 1.093-3.047V8.75A3.75 3.75 0 0 1 46.25 5"/></svg>