<svg xmlns="http://www.w3.org/2000/svg" width="36" height="40" fill="none"><path fill="#1A75BB" d="M10.5.625V5h15V.625c0-.312.234-.625.625-.625.313 0 .625.313.625.625V5h3.75c2.734 0 5 2.266 5 5v25c0 2.813-2.266 5-5 5h-25c-2.812 0-5-2.187-5-5V10c0-2.734 2.188-5 5-5h3.75V.625c0-.312.234-.625.625-.625.313 0 .625.313.625.625M1.75 15v20c0 2.11 1.64 3.75 3.75 3.75h25A3.75 3.75 0 0 0 34.25 35V15zm7.5-8.75H5.5A3.75 3.75 0 0 0 1.75 10v3.75h32.5V10c0-2.031-1.719-3.75-3.75-3.75h-3.75v3.125c0 .39-.312.625-.625.625-.39 0-.625-.234-.625-.625V6.25h-15v3.125c0 .39-.312.625-.625.625-.39 0-.625-.234-.625-.625zm9.844 13.36 1.875 3.828 4.14.546a1.282 1.282 0 0 1 .703 2.188l-3.046 2.89.78 4.22c.157 1.015-.937 1.796-1.874 1.327L18 32.58l-3.75 2.03c-.937.47-2.031-.312-1.797-1.328l.703-4.14-3.047-2.97c-.78-.702-.312-1.952.704-2.108l4.14-.625 1.875-3.829c.469-.859 1.797-.859 2.266 0M18 20.233l-2.031 4.063-.156.234-.313.078-4.531.625 3.281 3.203.234.235-.078.312-.781 4.453 4.063-2.109.312-.156.234.156 4.063 2.11-.781-4.454-.078-.312.234-.235 3.281-3.125-4.531-.703h-.313l-.156-.312z"/></svg>