<svg xmlns="http://www.w3.org/2000/svg" width="42" height="42" fill="none"><path fill="#1A75BB" d="M17.328 24.672a7.45 7.45 0 0 1 2.266 4.375c9.843-2.422 15-7.031 17.578-11.797 2.734-4.922 2.734-10.234 2.11-13.828a.7.7 0 0 0-.704-.703c-3.594-.625-8.906-.625-13.828 2.11-4.766 2.577-9.375 7.734-11.797 17.577a7.45 7.45 0 0 1 4.375 2.266m2.422 5.703v8.672c0 .469.469.703.86.547l7.343-3.672c1.094-.547 1.797-1.64 1.797-2.813v-6.718c-2.734 1.562-6.016 2.89-10 3.906zM31 33.109c0 1.641-.937 3.125-2.422 3.907l-7.422 3.672c-1.25.624-2.656-.313-2.656-1.641v-8.672c0-1.797-.781-3.516-2.031-4.844-1.328-1.25-3.047-2.031-4.844-2.031H2.953c-1.328 0-2.265-1.406-1.64-2.656l3.671-7.422C5.766 11.937 7.25 11 8.891 11h7.5C22.953 1.156 32.953.453 38.734 1.469c.938.156 1.641.86 1.797 1.797 1.016 5.78.313 15.78-9.531 22.343zM11.703 22.25c1.016-3.984 2.344-7.266 3.906-10H8.891c-1.172 0-2.266.703-2.813 1.797L2.406 21.39c-.156.39.156.859.547.859h8.75m1.406 14.61c2.188-2.188 2.188-5.782 0-7.97-2.187-2.187-5.78-2.187-7.968 0-1.094 1.094-1.797 2.813-2.266 4.766-.469 1.875-.625 3.75-.625 5.235 0 .468.39.937.938.859 1.406 0 3.28-.156 5.234-.625 1.875-.39 3.594-1.172 4.687-2.266m.86.859C11.313 40.453 6.156 40.922 3.188 41A2.05 2.05 0 0 1 1 38.813c.078-2.97.547-8.126 3.281-10.782 2.657-2.656 7.032-2.656 9.688 0s2.656 7.032 0 9.688M32.875 12.25c0-1.094-.625-2.11-1.562-2.656-1.016-.547-2.188-.547-3.125 0-1.016.547-1.563 1.562-1.563 2.656 0 1.172.547 2.188 1.563 2.734.937.547 2.109.547 3.125 0a3.15 3.15 0 0 0 1.562-2.734M29.75 7.875c1.563 0 2.969.86 3.75 2.188.781 1.406.781 3.046 0 4.374-.781 1.407-2.187 2.188-3.75 2.188-1.64 0-3.047-.781-3.828-2.187-.781-1.329-.781-2.97 0-4.376a4.4 4.4 0 0 1 3.828-2.187"/></svg>