<svg width="131" height="130" viewBox="0 0 131 130" fill="none" xmlns="http://www.w3.org/2000/svg">
<path d="M65.419 12.0008C65.6185 12.0012 65.818 12.0017 66.0236 12.0022C69.0607 12.0135 72.0199 12.1207 75.0064 12.7164C75.2241 12.7582 75.4418 12.8 75.6662 12.843C82.4971 14.1856 89.1226 16.7689 94.8834 20.7103C95.0127 20.7977 95.1419 20.885 95.275 20.975C97.1933 22.2788 98.982 23.7094 100.717 25.2474C100.835 25.3516 100.953 25.4558 101.074 25.5631C104.416 28.5363 107.324 31.8817 109.791 35.6178C109.918 35.81 110.045 36.0022 110.176 36.2001C115.11 43.9454 118.426 53.2015 118.477 62.4638C118.479 62.649 118.48 62.8343 118.482 63.0251C118.531 70.7679 118.531 70.7679 117.785 74.507C117.743 74.7247 117.702 74.9424 117.659 75.1667C116.316 81.9995 113.73 88.6197 109.791 94.3836C109.705 94.5117 109.619 94.6398 109.53 94.7717C108.171 96.7807 106.653 98.6256 105.038 100.433C104.875 100.617 104.875 100.617 104.709 100.804C95.8458 110.738 83.2646 116.774 70.0371 117.933C69.3703 117.965 68.7045 117.973 68.0369 117.977C67.7591 117.979 67.7591 117.979 67.4756 117.982C59.6462 118.031 59.6462 118.031 55.9936 117.285C55.6758 117.221 55.6758 117.221 55.3515 117.155C48.497 115.72 41.915 113.273 36.1165 109.291C35.9891 109.205 35.8616 109.119 35.7303 109.031C33.7206 107.672 31.8751 106.153 30.067 104.538C29.9446 104.429 29.8223 104.321 29.6962 104.209C19.8146 95.3933 13.6195 82.7332 12.5666 69.5378C12.5358 68.8639 12.5264 68.1911 12.5227 67.5165C12.5212 67.3316 12.5196 67.1467 12.5181 66.9562C12.4688 59.2334 12.4688 59.2334 13.2147 55.4945C13.2565 55.2768 13.2983 55.059 13.3413 54.8347C14.6843 48.002 17.2696 41.3818 21.2088 35.6178C21.295 35.4897 21.3812 35.3617 21.47 35.2297C22.8287 33.2207 24.3474 31.3759 25.962 29.5684C26.0707 29.446 26.1794 29.3237 26.2914 29.1976C33.8651 20.7081 44.1152 15.135 55.2239 12.865C55.3792 12.8332 55.5344 12.8013 55.6944 12.7686C58.929 12.1536 62.1339 11.9869 65.419 12.0008ZM53.4009 55.7105C50.8752 59.106 49.8695 63.2282 50.441 67.4212C51.193 71.5592 53.4878 75.0751 56.8586 77.5823C60.2665 79.8068 64.3485 80.7084 68.3762 79.9766C72.5869 79.0671 76.1727 76.5665 78.5308 72.9541C80.59 69.4361 81.2567 65.217 80.2727 61.2468C79.1595 57.1186 76.4199 53.7064 72.7412 51.5532C65.8477 48.1065 58.3756 49.9898 53.4009 55.7105Z" fill="#100F0E"/>
<path d="M66.5 15C69.7351 15 69.7351 15 71.0562 15.1973C71.1982 15.2182 71.3402 15.2391 71.4865 15.2606C71.936 15.3279 72.3848 15.3986 72.8336 15.4702C73.0664 15.5065 73.0664 15.5065 73.3038 15.5436C75.7269 15.9238 78.0769 16.3988 80.4091 17.1495C80.6609 17.2266 80.6609 17.2266 80.9178 17.3053C87.6484 19.3706 94.0129 22.7862 99.1719 27.5017C99.5966 27.8791 100.034 28.2143 100.5 28.5421C100.178 29.2643 99.7695 29.7355 99.1976 30.2888C99.0209 30.4608 98.8441 30.6329 98.662 30.8102C98.4711 30.9938 98.2802 31.1775 98.0835 31.3667C97.8881 31.5563 97.6927 31.7459 97.4914 31.9413C96.9732 32.4439 96.454 32.9455 95.9343 33.4467C95.4037 33.9589 94.8744 34.4723 94.3449 34.9856C93.3069 35.9915 92.2675 36.9962 91.2273 38C90.9471 37.7962 90.667 37.5922 90.3869 37.3881C90.2309 37.2746 90.0749 37.161 89.9142 37.044C89.3087 36.5981 88.717 36.1356 88.1226 35.6758C84.1832 32.7034 79.6757 30.6947 74.8896 29.4019C74.6562 29.3362 74.4229 29.2705 74.1824 29.2029C71.6619 28.5631 69.0956 28.4154 66.5 28.1121C66.5 23.7851 66.5 19.4581 66.5 15Z" fill="#F5CE41"/>
<path d="M102.388 66C106.715 66 111.042 66 115.5 66C115.5 68.1772 115.4 70.0909 115.07 72.2094C115.047 72.361 115.024 72.5126 115 72.6688C114.332 76.9841 113.161 81.2177 111.416 85.2078C111.348 85.3656 111.28 85.5235 111.211 85.6861C109.155 90.4483 106.478 94.8647 102.998 98.6719C102.621 99.0966 102.286 99.5343 101.958 100C101.236 99.678 100.765 99.2695 100.211 98.6976C100.039 98.5209 99.8671 98.3441 99.6898 98.162C99.5062 97.9711 99.3225 97.7802 99.1333 97.5835C98.9437 97.3881 98.7541 97.1927 98.5587 96.9914C98.0561 96.4732 97.5545 95.954 97.0533 95.4343C96.5411 94.9037 96.0277 94.3744 95.5144 93.8449C94.5085 92.8069 93.5038 91.7675 92.5 90.7273C92.7038 90.4471 92.9078 90.167 93.1119 89.8869C93.2254 89.7309 93.339 89.5749 93.456 89.4142C93.9019 88.8087 94.3644 88.217 94.8242 87.6226C99.5799 81.3257 101.694 73.844 102.388 66Z" fill="#53ABFD"/>
<path d="M91.0065 92C92.2148 92.9805 93.3334 94.0222 94.4415 95.1084C94.7029 95.3633 94.7029 95.3633 94.9695 95.6234C95.521 96.1616 96.0718 96.7005 96.6226 97.2395C96.9984 97.6065 97.3743 97.9734 97.7502 98.3403C98.6674 99.2356 99.5839 100.132 100.5 101.028C100.118 101.837 99.691 102.234 98.9683 102.788C98.0116 103.525 98.0116 103.525 97.0771 104.288C90.617 109.701 82.0037 113.07 73.6615 114.422C73.4532 114.457 73.2449 114.491 73.0303 114.526C70.8416 114.852 68.7452 114.891 66.5 115C66.5 110.673 66.5 106.346 66.5 101.888C69.2321 101.569 69.2321 101.569 72.0195 101.243C73.2324 100.989 74.3722 100.729 75.5519 100.383C75.7032 100.34 75.8545 100.297 76.0103 100.253C81.1087 98.7945 85.6205 96.3956 89.6818 93.0748C89.8233 92.9609 89.9647 92.847 90.1104 92.7297C90.4103 92.4878 90.7087 92.2442 91.0065 92Z" fill="#68984D"/>
<path d="M29.0421 30C29.7643 30.322 30.2355 30.7305 30.7888 31.3024C30.9608 31.4791 31.1329 31.6559 31.3102 31.838C31.4938 32.0289 31.6775 32.2198 31.8667 32.4165C32.0563 32.6119 32.2459 32.8073 32.4413 33.0086C32.9439 33.5268 33.4455 34.046 33.9467 34.5657C34.4589 35.0963 34.9723 35.6256 35.4856 36.1551C36.4915 37.1931 37.4962 38.2325 38.5 39.2727C38.2963 39.5526 38.0925 39.8324 37.8886 40.1121C37.7751 40.2679 37.6616 40.4238 37.5447 40.5843C37.2589 40.9728 36.9691 41.3569 36.6746 41.7384C31.5137 48.4556 29.6015 55.5323 28.6121 64C24.2851 64 19.9581 64 15.5 64C15.6572 60.286 15.996 56.9673 16.7897 53.4026C16.8226 53.2513 16.8554 53.1 16.8892 52.9441C18.503 45.6356 21.9491 38.58 26.6776 32.8701C26.8879 32.6135 27.098 32.3568 27.3082 32.1C27.8838 31.3979 28.4622 30.6984 29.0421 30Z" fill="#D0E3E8"/>
<path d="M64.5 15C64.5 19.327 64.5 23.654 64.5 28.1121C63.4663 28.2274 62.4327 28.3427 61.3677 28.4614C57.1627 28.9703 53.2992 29.939 49.487 31.7664C49.3334 31.8392 49.1798 31.9121 49.0215 31.9872C45.6724 33.5933 42.8155 35.6349 39.9935 38C38.7852 37.0195 37.6666 35.9778 36.5585 34.8916C36.3843 34.7216 36.21 34.5517 36.0305 34.3766C35.479 33.8384 34.9282 33.2995 34.3774 32.7605C34.0016 32.3935 33.6257 32.0266 33.2498 31.6597C32.3326 30.7644 31.4161 29.8684 30.5 28.972C30.8821 28.1635 31.309 27.7662 32.0317 27.212C32.9884 26.4753 32.9884 26.4753 33.9229 25.7124C40.5345 20.1718 49.3666 16.6933 57.9482 15.5466C58.7451 15.4554 58.7451 15.4554 59.4221 15.215C59.7384 15.1837 60.0558 15.162 60.3733 15.1469C60.648 15.1334 60.648 15.1334 60.9283 15.1197C61.1188 15.1112 61.3094 15.1027 61.5057 15.094C61.6954 15.0848 61.8851 15.0755 62.0805 15.0659C62.8889 15.0274 63.6902 15 64.5 15Z" fill="#7C85E3"/>
<path d="M101.396 30C102.212 30.3821 102.613 30.809 103.173 31.5317C103.916 32.4884 103.916 32.4884 104.687 33.4229C111.913 41.9662 114.93 52.982 115.5 64C111.132 64 106.764 64 102.264 64C102.148 62.9663 102.031 61.9327 101.912 60.8677C101.372 56.4663 100.289 52.5314 98.3585 48.5455C98.2886 48.3992 98.2186 48.253 98.1466 48.1024C96.7409 45.1937 94.9336 42.647 92.8509 40.2016C92.5 39.7143 92.5 39.7143 92.5 39.0519C92.8377 38.6287 92.8377 38.6287 93.3166 38.1458C93.4948 37.9646 93.6729 37.7835 93.8564 37.5968C94.051 37.4022 94.2456 37.2076 94.446 37.0072C94.6435 36.8072 94.841 36.6072 95.0444 36.4012C95.5695 35.8694 96.0965 35.3397 96.624 34.8103C97.1618 34.2699 97.6978 33.7275 98.2339 33.1853C99.2862 32.1217 100.341 31.0602 101.396 30Z" fill="#E13E51"/>
<path d="M39.7727 92C40.0529 92.2038 40.333 92.4078 40.6131 92.6119C40.7691 92.7254 40.9251 92.839 41.0858 92.956C41.6913 93.4019 42.283 93.8644 42.8774 94.3242C46.7429 97.2408 51.209 99.2677 55.8896 100.598C56.1156 100.664 56.3416 100.729 56.5744 100.797C59.1639 101.46 61.8469 101.59 64.5 101.888C64.5 106.215 64.5 110.542 64.5 115C53.0819 114.415 42.195 111.13 33.3701 103.822C33.1135 103.612 32.8568 103.402 32.6 103.192C31.8979 102.616 31.1984 102.038 30.5 101.458C30.822 100.736 31.2305 100.265 31.8024 99.7112C32.0675 99.4531 32.0675 99.4531 32.338 99.1898C32.5289 99.0062 32.7198 98.8225 32.9165 98.6333C33.1119 98.4437 33.3073 98.2541 33.5086 98.0587C34.0268 97.5561 34.546 97.0545 35.0657 96.5533C35.5963 96.0411 36.1256 95.5277 36.6551 95.0144C37.6931 94.0085 38.7325 93.0038 39.7727 92Z" fill="#D6904B"/>
<path d="M76.9951 79C77.8581 79.3436 78.4021 79.8784 79.0557 80.5148C79.169 80.6246 79.2824 80.7344 79.3993 80.8475C79.7724 81.2095 80.144 81.5729 80.5156 81.9364C80.7746 82.1881 81.0336 82.4398 81.2928 82.6913C81.9737 83.3527 82.6532 84.0154 83.3324 84.6784C84.0261 85.3551 84.7211 86.0305 85.416 86.706C86.7786 88.031 88.1397 89.3574 89.5 90.6846C85.4594 95.7232 77.2792 98.7801 70.966 99.7726C70.804 99.8005 70.6419 99.8284 70.4749 99.8571C69.1394 100.057 67.8749 99.989 66.5 99.989C66.5 94.4193 66.5 88.8497 66.5 83.1112C67.7527 82.897 69.0054 82.6828 70.2961 82.4621C72.7997 81.6149 74.892 80.5507 76.9951 79Z" fill="#5C8644"/>
<path d="M64.5 30.0021C64.5 35.5741 64.5 41.1462 64.5 46.887C63.1736 47.1013 63.1736 47.1013 61.8204 47.32C58.9778 47.9646 56.2405 49.1625 54.0049 51C53.1419 50.6563 52.5979 50.1213 51.9443 49.4846C51.8309 49.3747 51.7176 49.2649 51.6007 49.1517C51.2276 48.7896 50.856 48.426 50.4844 48.0624C50.2254 47.8105 49.9664 47.5588 49.7072 47.3071C49.0263 46.6454 48.3468 45.9825 47.6676 45.3192C46.9739 44.6422 46.2789 43.9665 45.584 43.2907C44.2214 41.9651 42.8603 40.6382 41.5 39.3105C45.7863 33.9632 54.2087 31.1198 60.8757 30.0884C62.0789 29.9785 63.2915 30.0021 64.5 30.0021Z" fill="#6D75C9"/>
<path d="M30.5037 66C36.0753 66 41.6469 66 47.3873 66C47.6016 67.2527 47.8159 68.5054 48.0367 69.7961C48.8842 72.2997 49.9487 74.392 51.5 76.4951C51.1563 77.3581 50.6213 77.9021 49.9847 78.5557C49.8749 78.669 49.765 78.7824 49.6518 78.8993C49.2898 79.2724 48.9262 79.644 48.5626 80.0156C48.3108 80.2746 48.059 80.5336 47.8074 80.7928C47.1458 81.4737 46.4828 82.1532 45.8196 82.8324C45.1427 83.5261 44.4671 84.2211 43.7913 84.916C42.4658 86.2786 41.139 87.6397 39.8113 89C34.7861 84.9715 31.6873 76.7708 30.7202 70.466C30.6923 70.285 30.6644 70.1039 30.6356 69.9174C30.4653 68.5973 30.5037 67.3498 30.5037 66Z" fill="#58554D"/>
<path d="M91.1895 41C96.5368 45.2863 99.3802 53.7087 100.412 60.3757C100.521 61.5789 100.498 62.7915 100.498 64C94.9259 64 89.3538 64 83.613 64C83.4701 63.1157 83.3272 62.2315 83.18 61.3204C82.5354 58.4778 81.3375 55.7405 79.5 53.5049C79.8437 52.6419 80.3787 52.0979 81.0154 51.4443C81.1253 51.3309 81.2351 51.2176 81.3483 51.1007C81.7104 50.7276 82.074 50.356 82.4376 49.9844C82.6895 49.7254 82.9412 49.4664 83.1929 49.2072C83.8546 48.5263 84.5175 47.8468 85.1808 47.1676C85.8578 46.4739 86.5335 45.7789 87.2093 45.084C88.5349 43.7214 89.8618 42.3603 91.1895 41Z" fill="#C73747"/>
<path d="M39.5928 41C40.9885 42.1858 42.2556 43.4946 43.5294 44.8153C43.7602 45.0538 43.991 45.2921 44.2219 45.5305C44.8249 46.1533 45.4273 46.7768 46.0295 47.4005C46.646 48.0386 47.263 48.6761 47.8801 49.3136C49.0873 50.5612 50.2939 51.8095 51.5 53.0583C51.1998 53.8667 50.8757 54.479 50.3634 55.1657C48.5352 57.8055 47.7291 60.8206 47.3866 64C41.814 64 36.2414 64 30.5 64C30.5 62.226 30.525 60.6978 30.8383 58.9897C30.8763 58.7805 30.9143 58.5714 30.9535 58.3559C31.6533 54.7343 32.8869 51.3726 34.6134 48.1456C34.8005 47.7886 34.8005 47.7886 34.9914 47.4243C36.2647 45.0797 37.8456 42.9871 39.5928 41Z" fill="#B8C9CD"/>
<path d="M53.5583 79C54.3572 79.2966 54.951 79.6104 55.6238 80.1231C56.6419 80.8315 57.6805 81.3159 58.8337 81.7738C58.991 81.8365 59.1482 81.8992 59.3102 81.9639C61.0411 82.6289 62.6249 82.9114 64.5 83.1134C64.5 88.686 64.5 94.2586 64.5 100C61.3432 100 61.3432 100 59.9223 99.7564C59.7539 99.7279 59.5855 99.6993 59.4119 99.6699C52.6323 98.4433 46.5627 95.4232 41.5 90.9072C42.6858 89.5115 43.9946 88.2444 45.3153 86.9706C45.5538 86.7398 45.7921 86.509 46.0305 86.2781C46.6533 85.6751 47.2768 85.0727 47.9005 84.4705C48.5386 83.854 49.1761 83.237 49.8136 82.6199C51.0612 81.4127 52.3095 80.2061 53.5583 79Z" fill="#BD7F42"/>
<path d="M66.5 30C68.0756 30 69.479 30.0124 71.0079 30.2571C71.1901 30.2861 71.3723 30.315 71.5601 30.3449C73.3584 30.6491 75.0592 31.1248 76.7718 31.732C76.9496 31.7948 77.1273 31.8577 77.3104 31.9224C81.8742 33.5622 85.9536 35.8364 89.5 39.0928C88.3142 40.4885 87.0054 41.7556 85.6847 43.0294C85.4462 43.2602 85.2079 43.491 84.9695 43.7219C84.3467 44.3249 83.7232 44.9273 83.0995 45.5295C82.4614 46.146 81.8239 46.763 81.1864 47.3801C79.9388 48.5873 78.6905 49.7939 77.4417 51C76.6827 50.7152 76.0539 50.4157 75.3902 49.9581C72.6028 48.1253 69.8489 47.3861 66.5 46.8866C66.5 41.314 66.5 35.7414 66.5 30Z" fill="#D9B739"/>
<path d="M83.6134 66C89.186 66 94.7586 66 100.5 66C100.5 74.5706 96.9468 82.7168 91.4072 89C90.0115 87.8142 88.7444 86.5054 87.4706 85.1847C87.2398 84.9462 87.009 84.7079 86.7781 84.4695C86.1751 83.8467 85.5727 83.2232 84.9705 82.5995C84.354 81.9614 83.737 81.3239 83.1199 80.6864C81.9127 79.4388 80.7061 78.1905 79.5 76.9417C79.7848 76.1827 80.0843 75.5539 80.5419 74.8902C82.3747 72.1028 83.1139 69.3489 83.6134 66Z" fill="#4997E0"/>
</svg>
