<svg xmlns="http://www.w3.org/2000/svg" width="48" height="48" fill="none"><rect width="48" height="48" fill="#F4F6FC" rx="4"/><path fill="#1A75BB" d="M34.5 24c0-3.75-2.016-7.172-5.25-9.047-3.281-1.922-7.266-1.922-10.5 0A10.36 10.36 0 0 0 13.5 24c0 3.797 1.969 7.219 5.25 9.094 3.234 1.922 7.219 1.922 10.5 0A10.48 10.48 0 0 0 34.5 24M12 24a11.91 11.91 0 0 1 6-10.36c3.703-2.156 8.25-2.156 12 0 3.703 2.157 6 6.094 6 10.36 0 4.313-2.297 8.25-6 10.406-3.75 2.157-8.297 2.157-12 0-3.75-2.156-6-6.093-6-10.406m7.688 3.281c.843.985 2.25 1.969 4.312 1.969 2.016 0 3.469-.984 4.266-1.969.28-.328.75-.328 1.078-.093.328.28.328.75.093 1.078C28.36 29.484 26.579 30.75 24 30.75c-2.625 0-4.406-1.266-5.484-2.484-.235-.328-.235-.797.093-1.078.328-.235.797-.235 1.078.093m-.563-5.531c0-.61.516-1.125 1.125-1.125.61 0 1.125.516 1.125 1.125a1.11 1.11 0 0 1-1.125 1.125 1.11 1.11 0 0 1-1.125-1.125m8.625-1.125c.61 0 1.125.516 1.125 1.125a1.11 1.11 0 0 1-1.125 1.125 1.11 1.11 0 0 1-1.125-1.125c0-.61.516-1.125 1.125-1.125"/></svg>