<svg width="131" height="130" viewBox="0 0 131 130" fill="none" xmlns="http://www.w3.org/2000/svg">
<path d="M38.4918 17C56.3174 17 74.143 17 92.5087 17C92.834 18.3522 93.1593 19.7044 93.4944 21.0976C95.6146 26.4823 98.8303 30.358 104.125 32.8238C105.757 33.5256 107.522 33.8608 109.266 34.1707C109.426 36.3311 109.503 38.4802 109.5 40.6463C109.5 40.7976 109.5 40.9489 109.5 41.1048C109.474 53.2771 106.906 65.2452 101.774 76.3171C101.695 76.4908 101.615 76.6645 101.533 76.8435C99.1354 82.0659 96.1201 87.0424 92.5087 91.5366C92.4141 91.6551 92.3195 91.7735 92.222 91.8956C90.9531 93.4799 89.6483 95.0148 88.254 96.4924C87.8503 96.9223 87.4602 97.3588 87.075 97.8049C85.918 99.1226 84.6559 100.35 83.3147 101.483C82.941 101.8 82.5719 102.12 82.2042 102.444C77.8767 106.232 73.0728 109.334 68.0015 112.061C67.8685 112.134 67.7355 112.207 67.5985 112.282C66.7719 112.717 66.0603 112.985 65.106 113C64.5788 112.809 64.1491 112.619 63.6644 112.354C63.5295 112.283 63.3945 112.212 63.2555 112.14C62.8189 111.91 62.3854 111.674 61.9517 111.439C61.6551 111.282 61.3583 111.125 61.0615 110.969C59.113 109.93 57.2602 108.79 55.446 107.537C55.3271 107.455 55.2082 107.374 55.0856 107.29C53.5036 106.203 51.9909 105.058 50.5175 103.829C50.224 103.59 50.224 103.59 49.9245 103.345C47.2923 101.186 44.6913 98.88 42.4601 96.311C42.1318 95.9342 41.8005 95.561 41.4667 95.189C37.7078 90.9824 34.5183 86.3103 31.789 81.3902C31.702 81.2354 31.615 81.0806 31.5254 80.9211C27.9367 74.5015 25.3589 67.4659 23.7062 60.3171C23.6634 60.1355 23.6206 59.954 23.5765 59.767C22.1117 53.4769 21.5057 47.0919 21.5006 40.6463C21.5003 40.4286 21.5003 40.4286 21.5 40.2065C21.5003 38.1878 21.5857 36.1838 21.7348 34.1707C21.8965 34.1387 21.8965 34.1387 22.0616 34.1059C25.717 33.3625 28.6991 32.2483 31.5919 29.878C31.7156 29.7872 31.8394 29.6964 31.9669 29.6029C35.8912 26.6144 37.5064 21.5517 38.4918 17Z" fill="#EFF4F6"/>
<path d="M38.4918 17C56.3174 17 74.143 17 92.5087 17C92.834 18.3522 93.1593 19.7044 93.4944 21.0976C95.6146 26.4823 98.8303 30.358 104.125 32.8238C105.757 33.5256 107.522 33.8608 109.266 34.1707C109.426 36.3311 109.503 38.4802 109.5 40.6463C109.5 40.7976 109.5 40.9489 109.5 41.1048C109.474 53.2771 106.906 65.2452 101.774 76.3171C101.695 76.4908 101.615 76.6645 101.533 76.8435C99.1354 82.0659 96.1201 87.0424 92.5087 91.5366C92.4141 91.6551 92.3195 91.7735 92.222 91.8956C90.9531 93.4799 89.6483 95.0148 88.254 96.4924C87.8503 96.9223 87.4602 97.3588 87.075 97.8049C85.918 99.1226 84.6559 100.35 83.3147 101.483C82.941 101.8 82.5719 102.12 82.2042 102.444C77.8767 106.232 73.0728 109.334 68.0015 112.061C67.8685 112.134 67.7355 112.207 67.5985 112.282C66.7719 112.717 66.0603 112.985 65.106 113C64.5788 112.809 64.1491 112.619 63.6644 112.354C63.5295 112.283 63.3945 112.212 63.2555 112.14C62.8189 111.91 62.3854 111.674 61.9517 111.439C61.6551 111.282 61.3583 111.125 61.0615 110.969C59.113 109.93 57.2602 108.79 55.446 107.537C55.3271 107.455 55.2082 107.374 55.0856 107.29C53.5036 106.203 51.9909 105.058 50.5175 103.829C50.224 103.59 50.224 103.59 49.9245 103.345C47.2923 101.186 44.6913 98.88 42.4601 96.311C42.1318 95.9342 41.8005 95.561 41.4667 95.189C37.7078 90.9824 34.5183 86.3103 31.789 81.3902C31.702 81.2354 31.615 81.0806 31.5254 80.9211C27.9367 74.5015 25.3589 67.4659 23.7062 60.3171C23.6634 60.1355 23.6206 59.954 23.5765 59.767C22.1117 53.4769 21.5057 47.0919 21.5006 40.6463C21.5003 40.4286 21.5003 40.4286 21.5 40.2065C21.5003 38.1878 21.5857 36.1838 21.7348 34.1707C21.8965 34.1387 21.8965 34.1387 22.0616 34.1059C25.717 33.3625 28.6991 32.2483 31.5919 29.878C31.7156 29.7872 31.8394 29.6964 31.9669 29.6029C35.8912 26.6144 37.5064 21.5517 38.4918 17ZM42.6318 22.0732C42.2415 23.1034 41.8511 24.1337 41.449 25.1951C40.145 28.0244 38.4892 30.3646 36.3233 32.6098C36.1647 32.7852 36.1647 32.7852 36.0029 32.9642C33.5527 35.5772 30.1361 37.1421 26.8604 38.4634C26.7434 44.6825 26.8805 50.7385 28.3501 56.8175C28.4895 57.4193 28.5962 58.027 28.7087 58.6341C31.5839 72.7581 39.1797 85.8075 49.4086 95.939C49.5798 96.1109 49.7511 96.2829 49.9276 96.46C51.1135 97.6363 52.3583 98.698 53.6718 99.7317C53.9169 99.9316 54.1616 100.132 54.4057 100.333C57.132 102.551 60.0853 104.421 63.1346 106.171C63.345 106.294 63.5554 106.418 63.7722 106.546C63.9643 106.655 64.1564 106.765 64.3544 106.878C64.5198 106.973 64.6853 107.068 64.8557 107.166C65.3982 107.379 65.5557 107.361 66.0917 107.146C71.3588 104.704 76.1343 100.995 80.3677 97.0913C80.6934 96.7928 81.0218 96.4975 81.351 96.2027C82.3868 95.2724 83.3976 94.3508 84.2965 93.2866C84.6717 92.8452 85.0658 92.4241 85.4609 92C89.9876 87.0201 93.4361 81.3087 96.4516 75.3415C96.5716 75.1077 96.5716 75.1077 96.694 74.8693C100.562 67.3209 102.75 58.7317 103.746 50.3659C103.763 50.2329 103.78 50.0999 103.798 49.9629C104.131 47.3787 104.188 44.8346 104.165 42.2317C104.163 41.8444 104.161 41.4571 104.159 41.0697C104.155 40.1359 104.148 39.2021 104.14 38.2683C103.929 38.1926 103.718 38.1168 103.501 38.0388C103.219 37.936 102.936 37.8331 102.654 37.7302C102.516 37.6807 102.377 37.6312 102.235 37.5802C99.9948 36.7601 98.0525 35.5262 96.2544 33.9756C96.0882 33.8348 95.922 33.6939 95.7508 33.5488C92.1413 30.4215 89.8766 26.5504 88.3688 22.0732C73.2756 22.0732 58.1824 22.0732 42.6318 22.0732Z" fill="#26A9E1"/>
<path d="M70.8 43.3092C71.7253 43.9098 72.5035 44.6056 72.9519 45.5984C73.0593 46.3075 73.1155 47.0147 73.1533 47.7301C73.2571 47.5582 73.3609 47.3863 73.4679 47.2093C73.9848 46.4845 74.515 45.9429 75.3681 45.5984C76.4778 45.4315 77.5765 45.4126 78.5896 45.9254C79.4688 46.5776 80.3026 47.3924 80.4536 48.4965C80.4542 48.6297 80.4549 48.7629 80.4556 48.9002C80.4582 49.1311 80.4582 49.1311 80.4608 49.3667C80.4605 49.6176 80.4605 49.6176 80.4603 49.8735C80.4616 50.051 80.463 50.2285 80.4644 50.4114C80.4682 50.9991 80.469 51.5867 80.4694 52.1744C80.4707 52.5843 80.472 52.9943 80.4735 53.4043C80.4759 54.2649 80.4766 55.1255 80.4764 55.9862C80.4763 57.0835 80.4818 58.1806 80.4888 59.2779C80.4933 60.1256 80.4941 60.9734 80.4939 61.8212C80.4943 62.2253 80.4961 62.6294 80.4992 63.0335C80.5272 67.014 79.8106 69.738 76.9694 72.7609C76.5762 73.1167 76.5762 73.1167 76.1735 73.1167C76.1735 76.3782 76.1735 79.6397 76.1735 83C69.1304 83 62.0873 83 54.8307 83C54.7643 79.7385 54.6978 76.477 54.6294 73.1167C54.1643 72.733 53.6992 72.3493 53.22 71.9539C52.0816 70.6044 51.3074 69.1617 50.8038 67.4967C50.7684 67.3908 50.7331 67.2849 50.6966 67.1757C50.5603 66.5182 50.5693 65.8642 50.5668 65.1964C50.5648 64.967 50.5648 64.967 50.5628 64.733C50.5588 64.2278 50.5565 63.7226 50.5545 63.2174C50.5536 63.0445 50.5528 62.8716 50.552 62.6935C50.5478 61.7784 50.5449 60.8634 50.543 59.9483C50.5408 59.0047 50.5339 58.0612 50.5259 57.1177C50.5206 56.3907 50.5189 55.6637 50.5182 54.9366C50.5172 54.5889 50.5149 54.2411 50.5111 53.8934C50.5062 53.4059 50.5064 52.9186 50.5078 52.4312C50.5052 52.2887 50.5027 52.1462 50.5 51.9993C50.5123 50.8133 50.8942 50.0016 51.7366 49.1366C53.0311 48.1907 54.0231 48.177 55.6361 48.3114C56.6296 48.7554 57.1933 49.4302 57.8509 50.2493C57.8538 50.1135 57.8566 49.9776 57.8596 49.8375C57.9395 48.3079 58.284 47.3829 59.3539 46.257C60.2468 45.5047 61.15 45.4666 62.3057 45.5166C63.3996 45.6711 64.0255 46.0879 64.7722 46.8822C65.0994 47.3425 65.0994 47.3425 65.3008 47.7301C65.3036 47.5942 65.3065 47.4583 65.3094 47.3183C65.3883 45.8072 65.6815 44.7735 66.8628 43.7377C68.0996 42.875 69.3817 42.8198 70.8 43.3092Z" fill="#B56A35"/>
<path d="M65.5 17C74.4128 17 83.3257 17 92.5086 17C92.8339 18.3522 93.1592 19.7044 93.4943 21.0976C95.6145 26.4823 98.8303 30.358 104.125 32.8238C105.757 33.5256 107.522 33.8608 109.266 34.1707C109.426 36.3311 109.503 38.4802 109.5 40.6463C109.5 40.7976 109.5 40.9489 109.5 41.1048C109.474 53.2771 106.906 65.2452 101.774 76.3171C101.695 76.4908 101.615 76.6645 101.533 76.8435C99.1353 82.0659 96.12 87.0424 92.5086 91.5366C92.414 91.6551 92.3194 91.7735 92.2219 91.8956C90.953 93.4799 89.6481 95.0148 88.2539 96.4924C87.8502 96.9223 87.46 97.3588 87.0749 97.8049C85.9179 99.1226 84.6558 100.35 83.3145 101.483C82.9408 101.8 82.5718 102.12 82.204 102.444C77.8743 106.234 73.0659 109.358 67.9766 112.061C67.8403 112.134 67.704 112.207 67.5636 112.282C66.8499 112.654 66.3058 112.84 65.5 113C65.5 111.133 65.5 109.265 65.5 107.341C66.0042 107.072 66.5084 106.802 67.0279 106.524C71.8828 103.877 76.3227 100.622 80.3768 96.8869C80.6845 96.6057 80.9952 96.3279 81.3069 96.0511C82.2901 95.1757 83.2409 94.2985 84.0923 93.2934C84.4703 92.8502 84.8664 92.4264 85.2636 92C89.7904 87.0201 93.2388 81.3087 96.2543 75.3415C96.3344 75.1856 96.4144 75.0298 96.4968 74.8693C100.363 67.3229 102.557 58.7305 103.549 50.3659C103.565 50.2329 103.582 50.0999 103.599 49.9629C103.92 47.3855 104.024 44.8269 104.066 42.2317C104.074 41.8444 104.081 41.4571 104.089 41.0697C104.108 40.1359 104.125 39.2021 104.14 38.2683C104.021 38.2438 103.902 38.2193 103.779 38.1941C103.621 38.1607 103.464 38.1274 103.301 38.093C103.146 38.0605 102.99 38.028 102.829 37.9945C102.117 37.8155 101.488 37.5167 100.838 37.1829C100.635 37.0798 100.635 37.0798 100.428 36.9747C95.5902 34.4597 91.9052 30.4596 89.5515 25.6098C89.441 25.3838 89.441 25.3838 89.3282 25.1533C89.2252 24.9333 89.2253 24.9333 89.1202 24.7088C89.0306 24.5176 89.0306 24.5176 88.9393 24.3225C88.6787 23.5937 88.538 22.8278 88.3686 22.0732C80.822 22.0732 73.2753 22.0732 65.5 22.0732C65.5 20.399 65.5 18.7249 65.5 17Z" fill="#1A75BB"/>
<path d="M51.5214 55C51.7073 55.2949 51.7073 55.2949 51.8968 55.5957C51.9975 55.7309 52.0981 55.8661 52.2018 56.0053C52.4599 56.3901 52.4599 56.3901 52.4599 56.7872C52.7083 56.9235 52.9591 57.0549 53.2107 57.1844C53.3462 57.2581 53.4817 57.3318 53.6213 57.4078C54.6163 57.7353 55.5123 57.7286 56.472 57.2961C56.6346 57.1937 56.7972 57.0913 56.9647 56.9858C57.1505 56.9203 57.3363 56.8548 57.5278 56.7872C57.8492 56.2272 58.0545 55.6097 58.2786 55C58.4025 55 58.5264 55 58.654 55C58.9401 55.5923 59.2057 56.1554 59.4048 56.7872C59.7393 57.014 59.7393 57.014 60.1556 57.1844C60.2962 57.254 60.4367 57.3237 60.5816 57.3954C61.3248 57.6654 62.0006 57.5808 62.7768 57.5373C63.3465 57.5816 63.3465 57.5816 63.8454 57.878C64.6245 58.2497 65.2268 58.2549 66.0688 58.244C66.3774 58.2465 66.6859 58.2491 66.9945 58.2518C67.4768 58.2526 67.9591 58.2518 68.4414 58.2489C68.9098 58.2472 69.3779 58.2515 69.8463 58.2564C69.9898 58.2538 70.1333 58.2511 70.2812 58.2484C71.0093 58.259 71.3813 58.348 71.9753 58.8053C72.541 59.6427 72.5223 60.2451 72.483 61.2508C72.25 62.5344 71.55 63.4857 70.8309 64.5195C70.6763 64.7511 70.5223 64.9833 70.3689 65.2158C70.1352 65.57 69.9011 65.9238 69.6648 66.276C68.9039 67.4104 68.1976 68.5786 67.4993 69.7571C67.2926 70.1039 67.0859 70.4507 66.879 70.7973C66.7944 70.94 66.7097 71.0826 66.6225 71.2296C66.3496 71.6809 66.3496 71.6809 65.9483 72.1861C65.4405 73.1833 65.4856 74.0875 65.4845 75.2041C65.4815 75.402 65.4786 75.5999 65.4756 75.8038C65.4657 76.5394 65.4623 77.275 65.4581 78.0106C65.4426 79.6571 65.4271 81.3036 65.4111 83C62.1283 83 58.8454 83 55.4631 83C55.4514 78.0106 55.4514 78.0106 55.4579 76.4413C55.4541 76.0289 55.4497 75.6165 55.4448 75.2041C55.4475 74.9915 55.4501 74.779 55.4529 74.5599C55.4519 73.4446 55.4519 73.4446 54.9868 72.4829C54.6448 72.1634 54.6448 72.1634 54.285 71.9143C52.894 70.9105 52.1616 68.7579 51.7091 67.1135C51.6759 66.996 51.6427 66.8785 51.6085 66.7574C51.5028 66.2254 51.499 65.7337 51.5001 65.1899C51.5001 64.9634 51.5002 64.7368 51.5002 64.5034C51.5011 64.2599 51.5021 64.0164 51.5031 63.7655C51.5034 63.5154 51.5036 63.2653 51.5039 63.0076C51.5048 62.3442 51.5065 61.6809 51.5086 61.0175C51.5105 60.3399 51.5113 59.6624 51.5123 58.9848C51.5143 57.6565 51.5175 56.3283 51.5214 55Z" fill="#A85D27"/>
<path d="M70.1599 43.3003C71.0561 43.8835 71.8098 44.5592 72.2442 45.5233C72.3482 46.2119 72.4026 46.8986 72.4392 47.5933C72.5398 47.4264 72.6403 47.2595 72.7439 47.0876C73.2446 46.3838 73.7581 45.8579 74.5844 45.5233C75.6593 45.3612 76.7234 45.3429 77.7047 45.8408C78.4961 46.4295 79.0961 47.0665 79.4599 47.9697C79.4927 48.4679 79.5053 48.9454 79.498 49.4429C79.4974 49.5838 79.4969 49.7248 79.4963 49.87C79.4941 50.3187 79.4892 50.7673 79.4843 51.216C79.4823 51.5208 79.4805 51.8256 79.4789 52.1305C79.4746 52.8764 79.4679 53.6223 79.4599 54.3682C79.4021 54.2522 79.3442 54.1362 79.2847 54.0168C79.0773 53.6007 79.0773 53.6007 78.7529 53.2155C78.4848 52.8626 78.4848 52.8626 78.4848 52.4863C77.4634 51.9752 76.6629 51.6866 75.4979 51.6788C75.2532 51.6764 75.0084 51.674 74.7562 51.6716C74.4905 51.671 74.2247 51.6706 73.959 51.6703C73.6843 51.6691 73.4096 51.6678 73.1349 51.6665C72.5597 51.6642 71.9845 51.6635 71.4092 51.6638C70.6754 51.6638 69.9418 51.6587 69.2081 51.6522C68.6407 51.648 68.0734 51.6472 67.506 51.6474C67.2357 51.647 66.9654 51.6453 66.695 51.6424C65.0286 51.6261 63.6501 51.621 62.3699 52.7727C61.736 53.4338 61.643 54.0594 61.6157 54.9445C61.6543 55.8211 61.7848 56.4479 62.2982 57.191C62.4913 57.4705 62.4913 57.4705 62.6883 57.7556C62.0139 58.081 61.2818 58.01 60.5431 57.9438C59.399 57.5404 58.6765 56.8416 58.0078 55.8737C58.0078 55.6874 58.0078 55.5011 58.0078 55.3091C57.8791 55.3091 57.7504 55.3091 57.6178 55.3091C57.5736 55.476 57.5293 55.6429 57.4837 55.8149C57.109 56.7276 56.5553 57.1867 55.7164 57.7203C54.6622 58.092 53.7477 58.092 52.6936 57.7203C51.6838 57.078 51.0308 56.4013 50.5971 55.3091C50.5068 54.5279 50.5066 53.7539 50.5118 52.9685C50.5079 52.7602 50.504 52.552 50.5 52.3374C50.5009 50.9066 50.6582 50.0273 51.6956 48.9592C52.9495 48.0407 53.9103 48.0274 55.4726 48.1579C56.4349 48.589 56.9808 49.2443 57.6178 50.0398C57.6206 49.9078 57.6233 49.7759 57.6262 49.6399C57.7036 48.1545 58.0373 47.2562 59.0736 46.1628C59.9384 45.4323 60.8131 45.3953 61.9326 45.4439C62.9921 45.5939 63.5983 45.9986 64.3216 46.77C64.6385 47.217 64.6385 47.217 64.8335 47.5933C64.8363 47.4614 64.839 47.3294 64.8419 47.1934C64.9183 45.726 65.2023 44.7223 66.3464 43.7164C67.5444 42.8786 68.7861 42.825 70.1599 43.3003Z" fill="#D78A55"/>
<path d="M92.0992 43.1615C92.4656 43.7157 92.4656 43.7157 92.5 44.2353C92.2545 44.8997 92.1276 44.9804 91.5553 45.3474C91.4064 45.4434 91.2576 45.5393 91.1042 45.6382C90.9488 45.7354 90.7935 45.8325 90.6335 45.9327C90.487 46.025 90.3405 46.1172 90.1896 46.2123C89.7487 46.486 89.3044 46.7527 88.8585 47.018C88.7092 47.11 88.5598 47.2019 88.4059 47.2966C87.6006 47.7744 87.0177 48.113 86.053 47.9648C85.698 47.7685 85.698 47.7685 85.5034 47.4106C85.4934 46.7994 85.4934 46.7994 85.6866 46.1174C86.1125 45.7146 86.6016 45.4628 87.118 45.1937C87.4029 45.0367 87.6877 44.8796 87.9725 44.7224C88.1838 44.6086 88.1838 44.6086 88.3993 44.4925C88.7611 44.2922 89.1101 44.0813 89.4583 43.8579C89.6458 43.7386 89.8334 43.6193 90.0266 43.4963C90.1898 43.3908 90.353 43.2853 90.5211 43.1766C91.1321 42.9216 91.4726 42.9662 92.0992 43.1615Z" fill="#FBCB08"/>
<path d="M90.5986 58.0149C90.7432 58.0141 90.8878 58.0133 91.0368 58.0125C91.3424 58.0115 91.648 58.0117 91.9536 58.013C92.4207 58.0143 92.8873 58.0099 93.3543 58.005C93.6515 58.0047 93.9486 58.0048 94.2457 58.0053C94.3851 58.0035 94.5245 58.0018 94.668 58C95.3237 58.0073 95.6893 58.0454 96.224 58.3662C96.5082 58.7012 96.5082 58.7012 96.4963 59.1849C96.3187 59.6299 96.3187 59.6299 95.7503 59.9395C95.2482 59.9716 94.7665 59.9865 94.2642 59.986C94.1192 59.9867 93.9742 59.9873 93.8248 59.988C93.5184 59.9889 93.212 59.989 92.9056 59.9883C92.4365 59.9878 91.9676 59.9915 91.4986 59.9954C91.2008 59.9957 90.9031 59.9958 90.6053 59.9957C90.3948 59.9978 90.3948 59.9978 90.1801 60C89.2156 59.9929 89.2156 59.9929 88.7466 59.7328C88.4379 59.3264 88.4796 59.0119 88.5508 58.5464C89.0278 57.9216 89.7879 58.0123 90.5986 58.0149Z" fill="#FCCB06"/>
<path d="M65.6849 28.0036C66.1299 28.1803 66.1299 28.1803 66.4395 28.7456C66.4716 29.2292 66.4865 29.6919 66.486 30.1757C66.4867 30.3153 66.4873 30.4549 66.488 30.5988C66.4889 30.8938 66.489 31.1889 66.4883 31.484C66.4878 31.9348 66.4915 32.3853 66.4954 32.8361C66.4957 33.1231 66.4958 33.41 66.4957 33.6969C66.4971 33.8314 66.4985 33.9659 66.5 34.1044C66.4955 34.6886 66.4642 35.0967 66.2328 35.614C65.9751 35.9058 65.9751 35.9058 65.5108 36C65.0464 35.9058 65.0464 35.9058 64.7894 35.6136C64.5065 34.9839 64.5126 34.4036 64.5149 33.7035C64.5141 33.5642 64.5133 33.4249 64.5125 33.2813C64.5115 32.9874 64.5117 32.6934 64.513 32.3995C64.5143 31.9503 64.5099 31.5015 64.505 31.0523C64.5047 30.7663 64.5048 30.4802 64.5053 30.1941C64.5035 30.0602 64.5018 29.9263 64.5 29.7884C64.5074 29.1468 64.5494 28.7993 64.8662 28.2774C65.2012 27.9919 65.2012 27.9919 65.6849 28.0036Z" fill="#FCCB04"/>
<path d="M45.0595 70C45.8084 70.0466 45.8084 70.0466 46.2087 70.2682C46.5238 70.7537 46.5598 70.9849 46.4282 71.5394C45.3666 72.4643 44.1009 73.0875 42.8257 73.7435C42.5123 73.9107 42.5123 73.9107 42.1925 74.0813C40.2265 75.0948 40.2265 75.0948 38.9907 74.898C38.5775 74.5248 38.5775 74.5248 38.5 73.9884C38.5966 73.2612 38.8008 73.1309 39.4039 72.6589C39.7673 72.4489 40.1391 72.2504 40.5168 72.062C40.7275 71.9558 40.9383 71.8496 41.1555 71.7402C41.3743 71.6316 41.5931 71.523 41.8185 71.4111C42.2542 71.1929 42.6897 70.9745 43.1251 70.7558C43.3178 70.6599 43.5105 70.5641 43.7091 70.4652C44.5373 70.0349 44.5373 70.0349 45.0595 70Z" fill="#FCCC08"/>
<path d="M36.6789 58.0028C36.8187 58.0024 36.9586 58.002 37.1026 58.0015C37.3981 58.0012 37.6936 58.002 37.9891 58.004C38.4406 58.0065 38.8918 58.004 39.3433 58.001C39.6306 58.0013 39.918 58.0019 40.2053 58.0028C40.34 58.0019 40.4747 58.001 40.6134 58C41.1981 58.0067 41.6084 58.0402 42.126 58.271C42.4174 58.5278 42.4174 58.5278 42.5 58.9912C42.4174 59.4547 42.4174 59.4547 42.2213 59.7112C41.648 60.0318 41.0487 59.9873 40.3778 59.9851C40.2338 59.9859 40.0898 59.9867 39.9414 59.9875C39.6371 59.9885 39.3327 59.9883 39.0283 59.987C38.5631 59.9857 38.0983 59.9901 37.6331 59.995C37.3372 59.9953 37.0412 59.9952 36.7453 59.9947C36.5371 59.9973 36.5371 59.9973 36.3247 60C35.6671 59.9927 35.3079 59.9556 34.7749 59.6291C34.4919 59.3002 34.4919 59.3002 34.5037 58.9044C34.9295 57.998 35.5804 57.9952 36.6789 58.0028Z" fill="#FCCB06"/>
<path d="M39.9279 43.0142C40.6327 43.174 41.1535 43.3973 41.7805 43.7217C41.999 43.8343 42.2175 43.947 42.4426 44.0631C42.6676 44.1814 42.8926 44.2998 43.1244 44.4217C43.351 44.538 43.5775 44.6542 43.811 44.7739C45.7519 45.7834 45.7519 45.7834 46.4424 46.4866C46.5461 47.0231 46.533 47.2806 46.2073 47.7439C45.6332 48.065 45.2339 48.0122 44.5613 47.9631C43.93 47.7207 43.93 47.7207 43.2721 47.3834C43.0338 47.2619 42.7955 47.1403 42.55 47.015C42.4277 46.9509 42.3054 46.8868 42.1794 46.8208C41.8057 46.6254 41.4295 46.4343 41.0526 46.2436C38.962 45.165 38.962 45.165 38.5 44.4563C38.5261 43.8796 38.5261 43.8796 38.709 43.3489C39.336 42.9798 39.336 42.9798 39.9279 43.0142Z" fill="#FCCC08"/>
<path d="M86.4366 70.0361C87.0397 70.2648 87.0397 70.2648 87.6612 70.5832C87.8871 70.698 88.1129 70.8129 88.3456 70.9313C88.5783 71.0529 88.8111 71.1746 89.0509 71.2999C89.4025 71.478 89.4025 71.478 89.7611 71.6598C91.7812 72.6986 91.7812 72.6986 92.4418 73.4063C92.5194 73.9914 92.5194 73.9914 92.4418 74.5297C92.0276 74.9042 92.0276 74.9042 91.4266 75C90.2133 74.9668 89.1988 74.2879 88.1838 73.7457C87.9736 73.6374 87.7634 73.5292 87.5468 73.4176C86.4783 72.8592 85.4636 72.3109 84.5729 71.534C84.4398 70.9725 84.473 70.7433 84.8059 70.2584C85.3727 69.9338 85.7729 69.9887 86.4366 70.0361Z" fill="#FCCB08"/>
<path d="M80.441 32C81.0826 32.0465 81.0826 32.0465 81.4492 32.4186C81.7135 33.8134 80.8946 34.8382 80.2004 35.9884C80.0826 36.1892 79.9648 36.3901 79.8435 36.597C78.7405 38.466 78.7405 38.466 78.333 38.9302C77.6915 39.0233 77.6915 39.0233 77.0499 38.9302C76.6833 38.6163 76.6833 38.6163 76.5 38.186C76.5803 37.3865 76.8954 36.8087 77.2898 36.1199C77.3497 36.0147 77.4096 35.9096 77.4713 35.8012C77.5975 35.5803 77.7243 35.3596 77.8517 35.1394C78.0467 34.8022 78.2396 34.4639 78.4322 34.1254C79.615 32.0599 79.615 32.0599 80.441 32Z" fill="#FCCB07"/>
<path d="M50.5345 32C51.2436 32.1254 51.2436 32.1254 51.522 32.4351C51.609 32.5701 51.6961 32.7052 51.7858 32.8444C51.883 32.9934 51.9803 33.1425 52.0805 33.2961C52.1788 33.4515 52.277 33.6069 52.3782 33.7671C52.4725 33.9121 52.5669 34.0571 52.6641 34.2064C52.9449 34.6421 53.2177 35.0817 53.4892 35.5228C53.5832 35.67 53.6773 35.8172 53.7743 35.9689C54.3087 36.8413 54.617 37.4651 54.4583 38.5098C54.0801 38.8746 54.0801 38.8746 53.4655 39C52.7564 38.8746 52.7564 38.8746 52.478 38.5649C52.391 38.4299 52.3039 38.2948 52.2142 38.1556C52.117 38.0066 52.0197 37.8575 51.9195 37.7039C51.8212 37.5485 51.723 37.3931 51.6218 37.2329C51.5275 37.0879 51.4331 36.9429 51.3359 36.7936C51.0551 36.3579 50.7823 35.9183 50.5108 35.4772C50.4168 35.33 50.3227 35.1828 50.2257 35.0311C49.6913 34.1587 49.383 33.5349 49.5417 32.4902C49.9199 32.1254 49.9199 32.1254 50.5345 32Z" fill="#FCCB07"/>
</svg>
