<svg xmlns="http://www.w3.org/2000/svg" width="50" height="41" fill="none"><path fill="#1A75BB" d="m24.766 2.406-1.875 3.75-.157.313-.312.078-4.063.547c-.234.078-.39.312-.156.468l2.89 2.891.235.235V11l-.703 4.063c-.078.234.156.39.39.312l3.672-1.953.313-.156.234.156 3.672 1.953c.235.078.469-.078.39-.312L28.595 11v-.312l.234-.235 2.89-2.89c.235-.157.079-.391-.155-.47L27.5 6.47h-.312l-.157-.313-1.797-3.75h-.078c-.078-.156-.312-.156-.468 0zm-1.172-.547c.625-1.093 2.187-1.093 2.734 0l1.719 3.438 3.75.547c1.25.234 1.719 1.718.86 2.656l-2.735 2.578.625 3.75c.234 1.25-1.094 2.188-2.188 1.64L25 14.673l-3.36 1.797h-.078c-1.093.625-2.343-.39-2.187-1.563l.625-3.75L17.266 8.5v-.078c-.86-.86-.391-2.344.859-2.578l3.75-.547zM21.25 22.25c-1.406 0-2.5 1.172-2.5 2.5v12.5c0 1.406 1.094 2.5 2.5 2.5h7.5c1.328 0 2.5-1.094 2.5-2.5v-12.5c0-1.328-1.172-2.5-2.5-2.5zm-3.75 2.5A3.75 3.75 0 0 1 21.25 21h7.5c2.031 0 3.75 1.719 3.75 3.75v12.5A3.75 3.75 0 0 1 28.75 41h-7.5c-2.11 0-3.75-1.64-3.75-3.75zm-13.75 2.5c-1.406 0-2.5 1.172-2.5 2.5v7.5c0 1.406 1.094 2.5 2.5 2.5h7.5c1.328 0 2.5-1.094 2.5-2.5v-7.5c0-1.328-1.172-2.5-2.5-2.5zM0 29.75A3.75 3.75 0 0 1 3.75 26h7.5c2.031 0 3.75 1.719 3.75 3.75v7.5A3.75 3.75 0 0 1 11.25 41h-7.5C1.64 41 0 39.36 0 37.25zm46.25 2.5h-7.5c-1.406 0-2.5 1.172-2.5 2.5v2.5c0 1.406 1.094 2.5 2.5 2.5h7.5c1.328 0 2.5-1.094 2.5-2.5v-2.5c0-1.328-1.172-2.5-2.5-2.5M38.75 31h7.5c2.031 0 3.75 1.719 3.75 3.75v2.5A3.75 3.75 0 0 1 46.25 41h-7.5C36.64 41 35 39.36 35 37.25v-2.5A3.75 3.75 0 0 1 38.75 31"/></svg>