<svg xmlns="http://www.w3.org/2000/svg" width="80" height="80" fill="none"><path fill="#E0EAF2" d="M36.25 23.75c-4.531 0-8.594 2.422-10.86 6.25-2.265 3.906-2.265 8.672 0 12.5 2.266 3.906 6.329 6.25 10.86 6.25 4.453 0 8.516-2.344 10.781-6.25 2.266-3.828 2.266-8.594 0-12.5-2.265-3.828-6.328-6.25-10.781-6.25m0 28.75C27.266 52.5 20 45.234 20 36.25 20 27.344 27.266 20 36.25 20c8.906 0 16.25 7.344 16.25 16.25 0 3.828-1.328 7.344-3.516 10.156l10.391 10.469a1.71 1.71 0 0 1 0 2.578 1.71 1.71 0 0 1-2.578 0l-10.469-10.39A16.37 16.37 0 0 1 36.25 52.5m-1.875-9.375v-5h-5c-1.094 0-1.875-.781-1.875-1.875 0-1.016.781-1.875 1.875-1.875h5v-5c0-1.016.781-1.875 1.875-1.875 1.016 0 1.875.86 1.875 1.875v5h5c1.016 0 1.875.86 1.875 1.875 0 1.094-.86 1.875-1.875 1.875h-5v5c0 1.094-.86 1.875-1.875 1.875-1.094 0-1.875-.781-1.875-1.875"/></svg>