<svg xmlns="http://www.w3.org/2000/svg" width="52" height="40" fill="none"><path fill="#1A75BB" d="m26.313.156 24.375 16.25c.312.157.39.547.156.86-.157.312-.547.39-.86.156L26 1.406 1.938 17.422c-.313.234-.704.156-.86-.156-.234-.313-.156-.703.156-.86L25.61.156a.59.59 0 0 1 .703 0M39.75 21.25c-1.094 0-1.875.86-1.875 1.875 0 1.094.781 1.875 1.875 1.875 1.016 0 1.875-.781 1.875-1.875 0-1.016-.86-1.875-1.875-1.875m0 5c-1.172 0-2.187-.547-2.734-1.562-.547-.938-.547-2.11 0-3.125A3.15 3.15 0 0 1 39.75 20c1.094 0 2.11.625 2.656 1.563.547 1.015.547 2.187 0 3.125-.547 1.015-1.562 1.562-2.656 1.562m-.469 2.5c-2.5 0-4.843 1.406-6.093 3.672L31 36.562c-.156.391 0 .86.39 1.094.391.157.86 0 1.016-.312l3.125-5.157q.234-.351.703-.234c.235.078.47.313.47.547v5.078c0 .625.546 1.25 1.25 1.25h3.75c.624 0 1.25-.625 1.25-1.25v-5c0-.312.155-.547.468-.625a.63.63 0 0 1 .703.235l3.047 5.156c.234.312.703.468 1.016.312.468-.234.624-.703.39-1.093l-2.187-4.141c-1.172-2.266-3.516-3.672-6.094-3.672zm-7.11 3.125c1.407-2.656 4.142-4.375 7.11-4.375h1.016c3.047 0 5.781 1.719 7.187 4.375l2.188 4.063a2.073 2.073 0 0 1-.86 2.812c-1.015.469-2.187.156-2.734-.781l-1.875-3.203V37.5c0 1.406-1.094 2.5-2.5 2.5h-3.75a2.47 2.47 0 0 1-2.5-2.5v-2.734L33.5 37.969a2.025 2.025 0 0 1-2.656.781 2.073 2.073 0 0 1-.86-2.812zm-21.796-8.75c0 1.094.781 1.875 1.875 1.875 1.016 0 1.875-.781 1.875-1.875 0-1.016-.86-1.875-1.875-1.875-1.094 0-1.875.86-1.875 1.875m5 0a3.15 3.15 0 0 1-1.562 2.734c-1.016.547-2.188.547-3.126 0-1.015-.547-1.562-1.562-1.562-2.734 0-1.094.547-2.11 1.563-2.656.937-.547 2.109-.547 3.124 0 .938.547 1.563 1.562 1.563 2.656m-9.61 9.297-2.187 4.14c-.234.391-.078.86.313 1.094.39.157.859 0 1.093-.312l3.047-5.157q.234-.351.703-.234c.235.078.47.313.47.547v5.078c0 .625.546 1.25 1.25 1.25h3.75c.624 0 1.25-.625 1.25-1.25v-5c0-.312.155-.547.468-.625a.63.63 0 0 1 .703.235l3.047 5.156c.234.312.703.468 1.015.312.47-.234.625-.703.391-1.093l-2.187-4.141c-1.172-2.266-3.516-3.672-6.094-3.672H11.78a6.8 6.8 0 0 0-6.015 3.672m6.016-4.922h1.016c3.047 0 5.781 1.719 7.187 4.375l2.188 4.063a2.073 2.073 0 0 1-.86 2.812c-1.015.469-2.187.156-2.734-.781l-1.875-3.203V37.5c0 1.406-1.094 2.5-2.5 2.5h-3.75a2.47 2.47 0 0 1-2.5-2.5v-2.734L6 37.969a2.025 2.025 0 0 1-2.656.781 2.073 2.073 0 0 1-.86-2.812l2.188-4.063c1.406-2.656 4.14-4.375 7.11-4.375M26 12.5c-1.094 0-1.875.86-1.875 1.875 0 1.094.781 1.875 1.875 1.875 1.016 0 1.875-.781 1.875-1.875 0-1.016-.86-1.875-1.875-1.875m0 5c-1.172 0-2.187-.547-2.734-1.562-.547-.938-.547-2.11 0-3.126A3.15 3.15 0 0 1 26 11.25c1.094 0 2.11.625 2.656 1.563.547 1.015.547 2.187 0 3.124C28.11 16.954 27.094 17.5 26 17.5m-.469 2.5a6.8 6.8 0 0 0-6.015 3.672l-1.563 2.89c-.156.313-.547.391-.86.235s-.39-.547-.234-.86l1.563-2.812a8.04 8.04 0 0 1 7.11-4.297h1.015c3.047 0 5.781 1.64 7.187 4.297l1.563 2.813c.156.312.078.703-.234.859-.313.156-.704.078-.86-.235l-1.562-2.89C31.469 21.406 29.125 20 26.547 20zm-3.047 3.203c.235.078.47.313.47.547v6.875c0 .39-.313.625-.626.625-.39 0-.625-.234-.625-.625v-4.687l-1.328 2.03c-.156.313-.547.391-.86.235-.234-.234-.39-.625-.156-.86l2.422-3.905a.63.63 0 0 1 .703-.235m7.188 0h-.078c.312-.078.625 0 .703.235l2.5 3.906c.156.234.078.625-.234.86-.235.155-.626.077-.86-.235l-1.25-2.032v4.688c0 .39-.312.625-.625.625-.39 0-.625-.234-.625-.625V23.75c0-.234.156-.469.469-.547"/></svg>