<svg width="131" height="130" viewBox="0 0 131 130" fill="none" xmlns="http://www.w3.org/2000/svg">
<path d="M96.1478 28.6884C99.9162 32.0445 102.326 36.2248 103.194 41.171C103.223 41.3339 103.252 41.4969 103.282 41.6648C104.08 47.2114 102.667 53.1252 99.367 57.6931C98.9356 58.2304 98.4893 58.7485 98.0306 59.2634C97.9041 59.4167 97.7777 59.57 97.6474 59.7279C95.8051 61.9202 93.0859 63.9057 90.3979 65C90.1016 65 89.8053 65 89.5 65C89.4995 64.7996 89.4995 64.7996 89.499 64.5952C89.4907 61.347 89.4774 58.0987 89.4587 54.8505C89.4498 53.2797 89.4425 51.7089 89.4391 50.138C82.3628 48.623 82.3549 47.108 82.3442 45.593C82.3408 45.0141 82.339 44.4352 82.3389 43.8562C82.3383 43.0473 82.3323 42.2386 82.3249 41.4297C82.326 41.1886 82.3272 40.9475 82.3283 40.6992C82.3252 40.4792 82.3221 40.2592 82.3189 40.0326C82.318 39.8412 82.3172 39.6498 82.3163 39.4526C82.2435 38.9296 82.2435 38.9296 81.7804 38.5835C81.2464 38.2684 80.7117 38.018 80.139 37.7769C79.9105 37.6798 79.6821 37.5826 79.4468 37.4825C79.2032 37.38 78.9597 37.2775 78.7087 37.1719C74.7732 35.4908 78.0141 33.6801 74.2347 31.6835C74.0069 31.5637 73.7791 31.4439 73.5443 31.3204C72.8152 30.9367 72.0867 30.5519 71.3584 30.1666C71.1293 30.0458 70.9002 29.925 70.6642 29.8005C69.5735 29.2208 68.5147 28.6336 67.5 27.9326C69.9525 25.39 73.6503 23.8241 77.1531 23.2992C77.2969 23.275 77.4407 23.2508 77.5889 23.2259C84.2852 22.2893 91.0894 24.2947 96.1478 28.6884Z" fill="#FDCB00"/>
<path d="M101.32 61.2228C101.794 61.5779 101.794 61.5779 102.299 62.0448C102.49 62.2221 102.682 62.3993 102.879 62.5819C103.929 63.5825 104.967 64.5925 105.995 65.6149C106.367 65.984 106.74 66.3513 107.113 66.7186C107.352 66.9552 107.59 67.1918 107.828 67.4286C107.939 67.5372 108.05 67.6458 108.164 67.7577C109.034 68.6284 109.402 69.1415 109.5 70.3684C109.474 71.195 109.328 71.7017 108.774 72.3447C107.909 72.9446 107.234 73.0985 106.187 72.9439C105.189 72.6063 104.528 71.7989 103.814 71.0575C103.642 70.8846 103.47 70.7117 103.293 70.5336C102.746 69.9822 102.204 69.4258 101.662 68.8691C101.292 68.4952 100.922 68.1217 100.551 67.7485C99.8767 67.0665 99.2028 66.384 98.5337 65.6968C98.3992 65.559 98.2648 65.4211 98.1263 65.2791C97.5553 64.6448 97.4942 64.0687 97.5004 63.223C97.6682 62.3638 98.2483 61.7739 98.9083 61.2228C99.7837 60.9325 100.458 60.919 101.32 61.2228Z" fill="#FFA600"/>
<path d="M108.013 16.1927C108.736 16.7727 109.192 17.4176 109.471 18.348C109.562 19.2116 109.452 19.7838 108.974 20.4902C108.82 20.668 108.666 20.8458 108.508 21.029C108.241 21.3383 108.241 21.3383 107.97 21.6537C107.766 21.8835 107.563 22.1128 107.359 22.3418C107.195 22.5264 107.195 22.5264 107.028 22.7147C106.308 23.5239 105.581 24.3248 104.849 25.1215C104.466 25.539 104.086 25.959 103.705 26.379C103.46 26.6471 103.214 26.915 102.968 27.1828C102.856 27.3074 102.743 27.4321 102.628 27.5605C101.88 28.3662 101.221 28.9142 100.151 29C99.0245 28.8646 98.5005 28.5349 97.7659 27.5449C97.427 26.8095 97.4855 26.2293 97.5479 25.4164C98.1966 24.1761 99.0673 23.2227 99.993 22.2199C100.22 21.9726 100.22 21.9726 100.451 21.7203C100.769 21.3739 101.087 21.0281 101.407 20.6828C101.894 20.1546 102.379 19.6233 102.863 19.0917C103.174 18.7546 103.484 18.4177 103.795 18.081C103.939 17.9224 104.083 17.7637 104.232 17.6003C105.413 16.3321 106.3 15.6386 108.013 16.1927Z" fill="#FFA600"/>
<path d="M109.59 42.0145C109.858 42.0139 110.126 42.0133 110.402 42.0127C110.967 42.013 111.533 42.0163 112.099 42.0225C112.965 42.0311 113.83 42.0277 114.696 42.0228C115.246 42.0245 115.795 42.0269 116.345 42.0301C116.734 42.0283 116.734 42.0283 117.13 42.0264C118.923 42.0556 118.923 42.0556 119.812 42.6473C120.532 43.5871 120.509 44.3363 120.496 45.5401C120.407 46.4241 120.138 46.8278 119.542 47.4042C118.443 48.0933 117.258 47.9787 116.034 47.9775C115.802 47.9785 115.569 47.9796 115.33 47.9807C114.84 47.9821 114.349 47.9823 113.859 47.9812C113.111 47.9804 112.363 47.9862 111.616 47.9926C111.138 47.9931 110.661 47.9933 110.184 47.993C109.961 47.9953 109.739 47.9976 109.51 48C108.225 47.9905 107.299 47.8603 106.17 47.155C105.454 46.1044 105.447 45.2366 105.544 43.9769C106.25 41.7938 107.785 41.9915 109.59 42.0145Z" fill="#FFA600"/>
<path d="M78.7411 7C80.2082 7 81.6754 7 83.1869 7C83.4511 7.56372 83.4298 7.95307 83.4361 8.58388C83.4388 8.81985 83.4415 9.05582 83.4443 9.29894C83.4459 9.5549 83.4475 9.81086 83.4491 10.0746C83.4516 10.4681 83.4516 10.4681 83.4543 10.8696C83.4572 11.4257 83.4595 11.9818 83.4611 12.5379C83.4648 13.3886 83.4741 14.239 83.4834 15.0896C83.4855 15.6294 83.4873 16.1692 83.4888 16.7089C83.4925 16.9635 83.4962 17.2181 83.5 17.4804C83.4954 19.2486 83.4954 19.2486 82.9994 20.1366C82.2386 20.8411 81.6442 21.0547 80.6465 20.9886C79.7415 20.8353 79.3022 20.4276 78.7411 19.6476C78.5326 18.9783 78.5027 18.3632 78.502 17.6609C78.5014 17.4468 78.5007 17.2327 78.5 17.0122C78.5004 16.7826 78.5009 16.5529 78.5013 16.3163C78.5011 16.0791 78.5009 15.8419 78.5007 15.5975C78.5005 15.0964 78.5009 14.5952 78.5018 14.094C78.5029 13.3268 78.5018 12.5595 78.5005 11.7923C78.5006 11.3053 78.5009 10.8183 78.5013 10.3313C78.5009 10.1017 78.5004 9.87203 78.5 9.63544C78.5007 9.42138 78.5013 9.20733 78.502 8.98678C78.5022 8.79893 78.5024 8.61107 78.5025 8.41752C78.5294 7.9034 78.5294 7.9034 78.7411 7Z" fill="#FFA600"/>
<path d="M91.6586 31.0506C94.9568 33.159 97.1913 37.2742 98.1484 40.9568C98.4115 42.2734 98.6475 43.6865 98.3866 45.0163C97.9043 45.6068 97.6785 45.8711 96.9149 46C96.2571 45.8833 96.0961 45.7586 95.6954 45.238C95.6043 44.6847 95.6043 44.6847 95.5833 44.0326C95.3384 40.2992 93.8236 37.0863 91.21 34.3758C90.9109 34.1256 90.6077 33.88 90.299 33.6415C89.6402 33.0457 89.6402 33.0457 89.5 32.3391C89.6402 31.7157 89.6402 31.7157 89.8925 31.3C90.515 30.9308 90.9414 30.9774 91.6586 31.0506Z" fill="#FFA600"/>
<path d="M106.029 56.3446C109.849 58.2321 109.849 58.2321 110.461 59.6624C110.572 60.7259 110.475 61.3968 109.798 62.3057C108.871 63.0297 108.152 63.0473 106.971 62.9681C106.146 62.6688 106.146 62.6688 105.322 62.2643C105.178 62.194 105.035 62.1236 104.887 62.0511C102.444 60.8326 102.444 60.8326 101.685 59.9047C101.418 58.9603 101.414 58.1761 101.847 57.2829C103.035 55.8514 104.258 55.7443 106.029 56.3446Z" fill="#FFA600"/>
<path d="M97.572 16.0264C99.2174 16.9242 99.2174 16.9242 99.4734 17.7544C99.7112 19.642 98.3066 21.6346 97.1341 23.068C96.396 23.6075 95.9802 23.8748 95.0539 24C94.0095 23.8589 93.3153 23.4939 92.6727 22.6926C92.3238 21.5376 92.5213 20.6421 93.1051 19.6188C93.1837 19.4884 93.2623 19.3579 93.3433 19.2236C93.4177 19.0924 93.492 18.9611 93.5687 18.8259C94.4951 17.2355 95.4484 15.7853 97.572 16.0264Z" fill="#FFA600"/>
<path d="M109.873 27.6776C110.413 28.4191 110.536 29.0834 110.492 29.9761C109.73 31.8557 107.467 32.8808 105.629 33.6758C104.533 34.0714 104.044 34.1183 102.944 33.7424C102.321 33.2566 101.89 32.871 101.529 32.1916C101.438 31.0586 101.536 30.4551 102.236 29.533C104.357 27.8311 107.213 25.9683 109.873 27.6776Z" fill="#FFA600"/>
<path d="M66.9158 16.0369C67.9392 16.4883 68.3652 17.0628 68.9348 17.9701C69.0814 18.1997 69.228 18.4292 69.3791 18.6657C70.1353 19.9747 70.6591 21.0052 70.456 22.5158C70.0305 23.2289 69.7168 23.6506 68.8795 23.9225C68.0159 24.0617 67.4808 24.0274 66.6668 23.7045C65.2201 22.4271 63.5924 20.4514 63.5 18.5057C63.6004 17.6796 63.6916 17.2909 64.2606 16.6639C65.1611 16.1158 65.8486 15.9082 66.9158 16.0369Z" fill="#FFA600"/>
<path d="M96.6635 65.4397C97.9495 66.9146 99.5 69.4915 99.5 71.5798C99.2417 72.4961 99.0288 73.0619 98.3545 73.6904C97.3327 74.1177 96.5771 74.1071 95.5725 73.6314C94.5739 72.8194 94.0028 71.5483 93.3905 70.399C93.2921 70.2291 93.1937 70.0593 93.0922 69.8842C92.5425 68.8626 92.3914 68.0431 92.5732 66.8687C92.8655 65.999 93.3272 65.6911 94.0451 65.2036C94.9775 64.8719 95.7957 64.942 96.6635 65.4397Z" fill="#FFA600"/>
<path d="M89.7404 13.0612C90.6216 13.538 91.1293 13.9191 91.4879 14.8846C91.6029 17.0554 90.893 19.8402 89.522 21.4942C88.7773 22.0837 88.0282 22.0333 87.1192 21.9501C86.3462 21.5737 86.0684 21.331 85.5902 20.5826C85.2843 18.3384 85.7834 16.2323 86.6823 14.2008C87.5867 13.1077 88.365 12.8665 89.7404 13.0612Z" fill="#FFA600"/>
<path d="M74.1049 13.0865C75.2334 13.6875 75.5127 14.3496 75.9142 15.5895C76.3694 17.3509 76.7869 19.2062 76.2407 20.9794C75.8186 21.5424 75.6312 21.7703 74.9756 21.9607C73.8885 22.064 73.2206 22.0044 72.3637 21.2781C71.1905 19.6523 70.6315 17.4929 70.5 15.4615C70.6637 14.4158 70.991 14.0486 71.7107 13.314C72.475 12.9145 73.2709 12.9674 74.1049 13.0865Z" fill="#FFA600"/>
<path d="M108.409 49.0776C109.048 49.2173 109.673 49.3886 110.299 49.5729C110.454 49.6179 110.609 49.6629 110.769 49.7092C111.734 50.0135 112.444 50.3863 113.184 51.0588C113.583 51.8298 113.536 52.6389 113.412 53.4802C113.122 54.143 112.885 54.3188 112.275 54.801C110.803 55.1988 109.45 54.9398 108.011 54.5533C107.824 54.509 107.636 54.4648 107.443 54.4192C106.263 54.1138 105.563 53.7658 104.77 52.8198C104.422 52.1453 104.491 51.5834 104.543 50.8386C105.367 49.084 106.567 48.8373 108.409 49.0776Z" fill="#FFA600"/>
<path d="M112.793 35.5259C113.495 36.3117 113.516 36.8894 113.496 37.8953C113.4 38.6693 113.14 38.9715 112.522 39.4749C110.925 40.4221 108.901 40.8402 107.046 41C106.02 40.7608 105.438 40.478 104.765 39.6927C104.429 38.7292 104.405 37.899 104.736 36.9285C105.5 36.1345 106.446 35.8814 107.503 35.5531C107.654 35.5034 107.806 35.4537 107.962 35.4025C109.502 34.9614 111.379 34.7314 112.793 35.5259Z" fill="#FFA600"/>
<path d="M28.7119 27.6584C45.7192 27.6584 62.7265 27.6584 80.2492 27.6584C80.5595 28.9619 80.8699 30.2654 81.1897 31.6084C83.2125 36.7991 86.2806 40.5352 91.3319 42.9122C92.8891 43.5887 94.573 43.9118 96.237 44.2106C96.3896 46.2932 96.4635 48.3648 96.4604 50.4529C96.4603 50.5987 96.4602 50.7446 96.4601 50.8948C96.4355 62.6287 93.9858 74.1656 89.0895 84.8386C89.0137 85.0061 88.9378 85.1735 88.8597 85.346C86.5717 90.3804 83.6948 95.1776 80.2492 99.5098C80.1589 99.624 80.0686 99.7382 79.9756 99.8559C78.765 101.383 77.52 102.863 76.1898 104.287C75.8046 104.702 75.4324 105.122 75.0649 105.552C73.961 106.823 72.7568 108.006 71.4772 109.098C71.1206 109.403 70.7685 109.712 70.4177 110.024C66.2889 113.676 61.7054 116.666 56.867 119.295C56.7401 119.365 56.6132 119.436 56.4824 119.508C55.6938 119.927 55.0149 120.186 54.1043 120.2C53.6013 120.016 53.1914 119.833 52.7289 119.577C52.6002 119.509 52.4715 119.441 52.3388 119.371C51.9222 119.149 51.5086 118.922 51.0949 118.695C50.8118 118.544 50.5287 118.393 50.2455 118.242C48.3864 117.241 46.6187 116.142 44.8878 114.933C44.7743 114.855 44.6609 114.776 44.544 114.695C43.0345 113.647 41.5913 112.544 40.1855 111.36C39.9055 111.129 39.9055 111.129 39.6198 110.893C37.1083 108.812 34.6268 106.589 32.498 104.112C32.1847 103.749 31.8686 103.389 31.5501 103.031C27.9639 98.9756 24.9207 94.4718 22.3167 89.729C22.2337 89.5798 22.1507 89.4305 22.0652 89.2768C18.6412 83.0884 16.1818 76.3063 14.6049 69.415C14.5641 69.24 14.5233 69.065 14.4812 68.8847C13.0836 62.8213 12.5055 56.6663 12.5006 50.4529C12.5003 50.243 12.5003 50.243 12.5 50.0289C12.5003 48.083 12.5818 46.1512 12.724 44.2106C12.8783 44.1797 12.8783 44.1797 13.0358 44.1481C16.5234 43.4315 19.3687 42.3574 22.1286 40.0726C22.2467 39.985 22.3648 39.8975 22.4864 39.8073C26.2306 36.9265 27.7716 32.0462 28.7119 27.6584Z" fill="#EFF4F6"/>
<path d="M73.2369 58.3421C74.3821 58.923 75.0715 59.845 75.7174 60.9284C76.0658 62.158 76.1622 63.4916 75.6468 64.6903C74.5821 66.4074 72.7711 67.3667 71.0503 68.311C70.5786 68.5744 70.1077 68.8392 69.6367 69.1038C69.5173 69.1706 69.3979 69.2374 69.2749 69.3063C68.0516 69.9921 66.8467 70.7073 65.6427 71.4263C63.9963 72.4072 62.3436 73.3756 60.6817 74.33C59.0123 75.2888 57.3518 76.2612 55.6973 77.2454C53.9744 78.2695 52.2474 79.2859 50.513 80.2902C50.2162 80.4628 50.2162 80.4628 49.9134 80.6388C45.6556 83.0966 45.6556 83.0966 43.6601 82.5782C42.2779 82.0859 41.3163 81.4384 40.6756 80.0926C40.1288 78.6521 39.7658 77.1641 39.4045 75.6686C39.1495 74.6137 38.8682 73.5712 38.5573 72.5314C38.4987 72.3327 38.4987 72.3327 38.4389 72.13C38.2756 71.5791 38.1081 71.0309 37.9262 70.4859C37.4365 68.9409 37.1859 67.0512 37.705 65.4794C38.4015 64.2699 39.5983 63.185 40.932 62.7623C42.3584 62.5931 43.4951 62.7109 44.6938 63.5147C44.8607 63.6194 45.0275 63.7242 45.1993 63.8321C46.4 65.0327 46.805 66.596 47.1861 68.2052C47.2808 68.5911 47.3758 68.9768 47.4712 69.3625C47.5115 69.531 47.5518 69.6994 47.5933 69.8731C47.6895 70.29 47.6895 70.29 47.8914 70.6622C48.9926 70.3653 49.888 69.8024 50.8539 69.2162C51.2255 68.9936 51.5973 68.7713 51.9692 68.5491C52.1636 68.4328 52.358 68.3166 52.5583 68.1968C53.5599 67.6023 54.5698 67.0222 55.5797 66.4419C57.9128 65.0993 60.2386 63.7444 62.5626 62.3861C67.0578 59.7591 67.0578 59.7591 68.6404 58.8476C68.9361 58.6771 68.9361 58.6771 69.2377 58.503C70.4712 57.8374 71.937 57.8351 73.2369 58.3421Z" fill="#68984D"/>
<path d="M28.7119 27.6584C45.7192 27.6584 62.7265 27.6584 80.2492 27.6584C80.5596 28.9619 80.8699 30.2654 81.1897 31.6084C83.2126 36.7991 86.2807 40.5352 91.332 42.9122C92.8892 43.5887 94.5731 43.9118 96.2371 44.2106C96.3897 46.2932 96.4635 48.3648 96.4605 50.4529C96.4604 50.5987 96.4602 50.7446 96.4601 50.8948C96.4356 62.6287 93.9859 74.1656 89.0896 84.8386C89.0137 85.0061 88.9379 85.1735 88.8597 85.346C86.5717 90.3804 83.6948 95.1776 80.2492 99.5098C80.1589 99.624 80.0687 99.7382 79.9756 99.8559C78.765 101.383 77.5201 102.863 76.1898 104.287C75.8046 104.702 75.4324 105.122 75.0649 105.552C73.9611 106.823 72.7569 108.006 71.4772 109.098C71.1207 109.403 70.7686 109.712 70.4177 110.024C66.2889 113.676 61.7054 116.666 56.867 119.295C56.7401 119.365 56.6132 119.436 56.4824 119.508C55.6938 119.927 55.0149 120.186 54.1044 120.2C53.6013 120.016 53.1914 119.833 52.7289 119.577C52.6002 119.509 52.4715 119.441 52.3388 119.371C51.9222 119.149 51.5086 118.922 51.0949 118.695C50.8118 118.544 50.5287 118.393 50.2455 118.242C48.3864 117.241 46.6187 116.142 44.8878 114.933C44.7743 114.855 44.6609 114.776 44.544 114.695C43.0345 113.647 41.5913 112.544 40.1855 111.36C39.9055 111.129 39.9055 111.129 39.6198 110.893C37.1083 108.812 34.6268 106.589 32.498 104.112C32.1847 103.749 31.8686 103.389 31.5501 103.031C27.9639 98.9756 24.9207 94.4718 22.3167 89.729C22.2337 89.5798 22.1507 89.4305 22.0652 89.2768C18.6412 83.0884 16.1818 76.3063 14.6049 69.415C14.5641 69.24 14.5233 69.065 14.4812 68.8847C13.0836 62.8213 12.5055 56.6663 12.5006 50.4529C12.5003 50.243 12.5003 50.243 12.5 50.0289C12.5003 48.083 12.5818 46.1512 12.724 44.2106C12.8783 44.1797 12.8783 44.1797 13.0358 44.1481C16.5234 43.4315 19.3687 42.3574 22.1286 40.0726C22.2467 39.985 22.3648 39.8975 22.4864 39.8073C26.2306 36.9265 27.7716 32.0462 28.7119 27.6584ZM32.6618 32.5489C32.2894 33.542 31.917 34.5351 31.5332 35.5583C30.2892 38.2857 28.7093 40.5415 26.6428 42.7059C26.4915 42.875 26.4915 42.875 26.3372 43.0475C23.9995 45.5664 20.7397 47.075 17.6144 48.3486C17.5027 54.3437 17.6335 60.1815 19.0356 66.0416C19.1687 66.6216 19.2705 67.2074 19.3778 67.7927C22.121 81.4078 29.3682 93.9872 39.1275 103.754C39.2909 103.919 39.4543 104.085 39.6227 104.256C40.7542 105.39 41.9418 106.413 43.195 107.41C43.4288 107.602 43.6623 107.796 43.8952 107.989C46.4964 110.127 49.3141 111.93 52.2234 113.617C52.4242 113.736 52.6249 113.855 52.8318 113.978C53.0151 114.084 53.1984 114.19 53.3873 114.299C53.5451 114.39 53.7029 114.482 53.8656 114.576C54.3832 114.781 54.5334 114.764 55.0448 114.557C60.0701 112.203 64.6264 108.627 68.6655 104.864C68.9762 104.577 69.2896 104.292 69.6036 104.008C70.5919 103.111 71.5563 102.223 72.414 101.197C72.772 100.771 73.148 100.365 73.5249 99.9565C77.8439 95.1561 81.134 89.6504 84.0111 83.8981C84.1256 83.6728 84.1256 83.6728 84.2424 83.443C87.9325 76.1665 90.02 67.8867 90.9705 59.8223C90.9869 59.6941 91.0033 59.5659 91.0202 59.4338C91.3379 56.9428 91.3927 54.4903 91.3702 51.9812C91.3683 51.6078 91.3666 51.2344 91.3651 50.8611C91.361 49.9609 91.3545 49.0607 91.3467 48.1605C91.1455 48.0875 90.9444 48.0145 90.7371 47.9393C90.4676 47.8402 90.1981 47.741 89.9287 47.6418C89.7967 47.5941 89.6648 47.5464 89.5289 47.4972C87.3917 46.7067 85.5385 45.5172 83.823 44.0225C83.6644 43.8867 83.5059 43.7509 83.3425 43.6111C79.8987 40.5964 77.7379 36.8648 76.2993 32.5489C61.8989 32.5489 47.4985 32.5489 32.6618 32.5489Z" fill="#26A9E1"/>
<path d="M54.4805 27.6584C62.9841 27.6584 71.4878 27.6584 80.2492 27.6584C80.5595 28.9619 80.8699 30.2654 81.1896 31.6084C83.2125 36.7991 86.2806 40.5352 91.3319 42.9122C92.8891 43.5887 94.573 43.9118 96.237 44.2106C96.3896 46.2932 96.4634 48.3648 96.4604 50.4529C96.4603 50.5987 96.4602 50.7446 96.46 50.8948C96.4355 62.6287 93.9858 74.1656 89.0895 84.8386C89.0137 85.0061 88.9378 85.1735 88.8596 85.346C86.5716 90.3804 83.6947 95.1776 80.2492 99.5098C80.1589 99.624 80.0686 99.7382 79.9756 99.8559C78.765 101.383 77.52 102.863 76.1897 104.287C75.8046 104.702 75.4323 105.122 75.0649 105.552C73.961 106.823 72.7568 108.006 71.4771 109.098C71.1206 109.403 70.7685 109.712 70.4176 110.024C66.2867 113.678 61.699 116.689 56.8434 119.295C56.7133 119.365 56.5833 119.436 56.4493 119.508C55.7684 119.867 55.2493 120.046 54.4805 120.2C54.4805 118.4 54.4805 116.6 54.4805 114.745C54.9615 114.485 55.4426 114.225 55.9382 113.958C60.5702 111.405 64.8063 108.268 68.6743 104.667C68.9679 104.396 69.2643 104.129 69.5617 103.862C70.4997 103.018 71.4069 102.172 72.2192 101.203C72.5799 100.776 72.9578 100.368 73.3368 99.9565C77.6557 95.1561 80.9459 89.6504 83.8229 83.8981C83.8993 83.7479 83.9756 83.5977 84.0543 83.443C87.7433 76.1684 89.8363 67.8856 90.7823 59.8223C90.7982 59.6941 90.8141 59.5659 90.8305 59.4338C91.1366 56.9493 91.2354 54.4828 91.2761 51.9812C91.2833 51.6078 91.2906 51.2344 91.2981 50.8611C91.3159 49.9609 91.3318 49.0607 91.3466 48.1605C91.233 48.1369 91.1193 48.1133 91.0023 48.089C90.8518 48.0569 90.7013 48.0247 90.5463 47.9916C90.3978 47.9602 90.2492 47.9289 90.0961 47.8966C89.4161 47.7241 88.8167 47.436 88.1961 47.1143C88.0023 47.0149 88.0023 47.0149 87.8046 46.9135C83.1893 44.4892 79.6734 40.6331 77.4278 35.958C77.3223 35.7402 77.3223 35.7402 77.2147 35.518C77.1165 35.3059 77.1165 35.3059 77.0163 35.0896C76.9308 34.9052 76.9308 34.9052 76.8437 34.7172C76.5951 34.0146 76.4609 33.2763 76.2992 32.5489C69.099 32.5489 61.8988 32.5489 54.4805 32.5489C54.4805 30.935 54.4805 29.3212 54.4805 27.6584Z" fill="#1A75BB"/>
</svg>
