<svg width="32" height="32" viewBox="0 0 32 32" fill="none" xmlns="http://www.w3.org/2000/svg">
<path d="M1.98629 23.129L2.00428 23.0424L1.96379 22.9637C0.875048 20.8489 0.257819 18.4554 0.250073 15.9191C0.224639 7.59343 6.84182 0.664375 15.2295 0.268228L15.2178 0.0185136L15.2296 0.268227C24.4497 -0.167327 32.0284 7.26207 31.7421 16.3702C31.4751 24.8663 24.3289 31.6195 15.7549 31.4896C13.3252 31.4528 11.0301 30.8696 8.98683 29.86L8.90632 29.8202L8.8189 29.8407L0.739135 31.7395C0.739126 31.7395 0.739118 31.7395 0.739109 31.7395C0.470442 31.8026 0.233609 31.5679 0.287594 31.308L0.0428175 31.2572L0.287594 31.308L1.98629 23.129ZM10.4242 27.0015L10.3134 27.2256C12.0887 28.1028 14.0026 28.5475 16 28.5475C19.412 28.5475 22.6215 27.2291 25.0347 24.8353C27.4269 22.4625 28.7781 19.2271 28.7782 15.8705C28.7781 12.4842 27.4481 9.29982 25.0348 6.90598C22.6215 4.5123 19.4122 3.19385 16.0003 3.19377C12.6181 3.19377 9.35736 4.53326 6.96523 6.90606L6.96522 6.90606C4.55189 9.29997 3.22192 12.4844 3.22192 15.8707C3.22192 17.8982 3.68943 19.8355 4.61133 21.6264L4.83361 21.512L4.61134 21.6264L5.1252 22.6245L4.10045 27.5588L4.02072 27.9427L4.40242 27.853L9.26874 26.7094L10.3134 27.2256L10.4242 27.0015Z" fill="white" stroke="#25D366" stroke-width="0.5"/>
<path d="M23.7652 19.3125L20.666 18.4298C20.2585 18.3138 19.8198 18.4285 19.5229 18.7285L18.765 19.4944C18.4454 19.8174 17.9605 19.9212 17.5375 19.7514C16.0715 19.1629 12.9875 16.443 12.1999 15.0826C11.9727 14.6901 12.0102 14.1995 12.2892 13.8414L12.9509 12.9923C13.2101 12.6596 13.2648 12.2128 13.0934 11.8283L11.7895 8.90304C11.4772 8.2024 10.5746 7.99845 9.98488 8.49314C9.1199 9.2188 8.0936 10.3215 7.96884 11.5432C7.74888 13.697 8.68013 16.4122 12.2017 19.6724C16.27 23.4388 19.5279 23.9364 21.6491 23.4267C22.8522 23.1377 23.8137 21.9789 24.4205 21.03C24.8342 20.3831 24.5076 19.524 23.7652 19.3125Z" fill="white"/>
</svg>
