<svg xmlns="http://www.w3.org/2000/svg" width="48" height="48" fill="none"><rect width="48" height="48" fill="#F4F6FC" rx="4"/><path fill="#1A75BB" d="m24.375 12.14 14.25 9c.375.235.469.704.234 1.032-.234.375-.703.469-1.03.234L24 13.641l-13.875 8.765c-.328.235-.797.094-1.031-.234-.235-.375-.14-.797.234-1.031l14.25-9a.8.8 0 0 1 .797 0M24.75 21c0-.375-.375-.75-.75-.75-.422 0-.75.375-.75.75 0 .422.328.75.75.75.375 0 .75-.328.75-.75m-3 0c0-.797.422-1.5 1.125-1.922.656-.422 1.547-.422 2.25 0 .656.422 1.125 1.125 1.125 1.922 0 .844-.469 1.547-1.125 1.969-.703.422-1.594.422-2.25 0-.703-.422-1.125-1.125-1.125-1.969m1.125 9.75h2.25v-5.156c-.187-.047-.375-.094-.562-.094H23.39c-.188 0-.375.047-.516.094zm5.719-.703-1.969-3.235v3.938c0 .844-.703 1.5-1.5 1.5h-2.25a1.48 1.48 0 0 1-1.5-1.5v-3.937l-2.016 3.234v.047c.047.047.094.14.141.234l2.11 3.422c.234.375.14.797-.235 1.031-.328.235-.797.094-1.031-.234l-1.969-3.234V34.5c0 .844-.703 1.5-1.5 1.5h-2.25a1.48 1.48 0 0 1-1.5-1.5v-3.187l-2.016 3.234c-.187.328-.656.469-1.03.234-.329-.234-.47-.656-.235-1.031l2.11-3.422c.702-1.125 1.921-1.828 3.187-1.828h1.172c.656 0 1.359.188 1.921.563l1.97-3.235C20.905 24.703 22.124 24 23.39 24h1.172c1.312 0 2.484.703 3.187 1.828l2.016 3.235a3.4 3.4 0 0 1 1.875-.563h1.172c1.312 0 2.484.703 3.187 1.828l2.11 3.422c.234.375.14.797-.235 1.031-.328.235-.797.094-1.031-.234l-1.969-3.234V34.5c0 .844-.703 1.5-1.5 1.5h-2.25a1.48 1.48 0 0 1-1.5-1.5v-3.187l-2.016 3.234c-.187.328-.656.469-1.03.234-.329-.234-.47-.656-.235-1.031l2.11-3.422c.046-.094.093-.187.187-.234zM15.75 26.25c.375 0 .75-.328.75-.75 0-.375-.375-.75-.75-.75-.422 0-.75.375-.75.75 0 .422.328.75.75.75m0-3c.797 0 1.5.469 1.922 1.125.422.703.422 1.594 0 2.25-.422.703-1.125 1.125-1.922 1.125-.844 0-1.547-.422-1.969-1.125-.422-.656-.422-1.547 0-2.25.422-.656 1.125-1.125 1.969-1.125m-1.125 6.844V34.5h2.25v-4.406c-.187-.047-.375-.094-.562-.094H15.14c-.188 0-.375.047-.516.094M33 25.5c0-.375-.375-.75-.75-.75-.422 0-.75.375-.75.75 0 .422.328.75.75.75.375 0 .75-.328.75-.75m-3 0c0-.797.422-1.5 1.125-1.922.656-.422 1.547-.422 2.25 0C34.031 24 34.5 24.703 34.5 25.5c0 .844-.469 1.547-1.125 1.969-.703.422-1.594.422-2.25 0C30.422 27.047 30 26.344 30 25.5m1.125 9h2.25v-4.406C33.188 30.047 33 30 32.813 30H31.64c-.188 0-.375.047-.516.094z"/></svg>