<svg xmlns="http://www.w3.org/2000/svg" width="48" height="48" fill="none"><rect width="48" height="48" fill="#F4F6FC" rx="4"/><path fill="#1A75BB" d="M19.5 12.75V15h9v-2.25c0-.375.328-.75.75-.75.375 0 .75.375.75.75V15h1.5c1.64 0 3 1.36 3 3v15c0 1.688-1.36 3-3 3h-15c-1.687 0-3-1.312-3-3V18c0-1.64 1.313-3 3-3H18v-2.25c0-.375.328-.75.75-.75.375 0 .75.375.75.75M15 21v12c0 .844.656 1.5 1.5 1.5h15c.797 0 1.5-.656 1.5-1.5V21zm1.5-4.5c-.844 0-1.5.703-1.5 1.5v1.5h18V18c0-.797-.703-1.5-1.5-1.5zm8.484 6.375 1.032 2.11 2.297.328c.937.14 1.312 1.265.656 1.921l-1.688 1.594.375 2.297c.188.938-.797 1.64-1.593 1.219L24 31.219l-2.062 1.125c-.844.422-1.829-.282-1.641-1.219l.375-2.297-1.64-1.594c-.704-.656-.329-1.78.609-1.922l2.297-.328 1.03-2.109a1.119 1.119 0 0 1 2.016 0m-1.875 3.094-.187.375-.375.047-1.922.28 1.406 1.36.282.282-.094.375-.328 1.968 1.734-.937.375-.188.328.188 1.735.937-.329-1.968-.047-.375.282-.282 1.406-1.36-1.969-.28-.375-.047-.187-.375L24 24.234z"/></svg>